<?xml version="1.0" standalone="no"?>
<!DOCTYPE svg PUBLIC "-//W3C//DTD SVG 20010904//EN"
 "http://www.w3.org/TR/2001/REC-SVG-20010904/DTD/svg10.dtd">
<svg version="1.0" xmlns="http://www.w3.org/2000/svg"
 width="1294.000000pt" height="1296.000000pt" viewBox="0 0 1294.000000 1296.000000"
 preserveAspectRatio="xMidYMid meet">

<g transform="translate(0.000000,1296.000000) scale(0.100000,-0.100000)"
fill="#000000" stroke="none">
<path d="M240 12865 c0 -139 22 -172 130 -194 30 -6 80 -16 110 -22 30 -6 107
-22 170 -35 302 -64 432 -85 472 -77 15 3 33 15 41 27 15 23 33 144 43 299 l7
97 -487 0 -486 0 0 -95z"/>
<path d="M2207 12893 c-4 -38 -5 -174 -4 -303 1 -177 5 -240 15 -255 23 -34
97 -62 192 -71 63 -6 73 -9 138 -35 18 -7 28 -4 44 11 12 11 23 18 25 16 2 -1
-17 -50 -42 -107 -26 -57 -64 -149 -86 -204 -23 -55 -60 -131 -84 -170 -24
-38 -61 -108 -83 -155 -73 -155 -181 -461 -196 -556 -5 -26 -22 -59 -49 -92
-54 -66 -267 -421 -349 -582 -58 -113 -79 -157 -155 -329 -96 -217 -216 -599
-255 -813 -19 -109 -22 -158 -22 -428 -1 -260 2 -317 17 -385 46 -203 109
-335 203 -431 44 -46 63 -73 68 -100 23 -121 130 -405 183 -485 26 -40 51
-156 78 -364 9 -71 28 -181 41 -243 23 -108 107 -372 134 -423 8 -13 11 -25 9
-25 -5 -2 31 -49 104 -137 31 -38 61 -76 66 -85 5 -9 13 -14 16 -10 4 4 -13
35 -37 70 -25 35 -43 69 -41 76 3 6 0 12 -6 12 -6 0 -8 7 -5 15 3 8 -1 29 -10
46 -13 26 -14 34 -4 41 9 5 8 8 -4 8 -10 0 -18 7 -18 15 0 8 -4 15 -10 15 -5
0 -7 7 -4 15 4 8 1 15 -6 15 -7 0 -5 6 5 16 9 9 13 19 10 22 -3 4 -10 0 -15
-8 -7 -12 -10 -11 -16 4 -5 14 -9 15 -15 4 -6 -8 -9 3 -10 32 -2 44 -2 44 -8
10 l-6 -35 -17 35 c-36 76 -51 120 -84 249 -37 142 -40 180 -10 115 69 -147
115 -226 197 -338 36 -47 82 -120 103 -161 22 -40 65 -109 98 -151 32 -43 58
-83 58 -90 0 -7 -26 -22 -57 -34 -86 -31 -279 -131 -543 -280 -74 -41 -225
-118 -335 -170 -196 -93 -202 -97 -283 -178 -52 -51 -94 -85 -110 -87 -15 -3
-144 -21 -287 -40 -290 -39 -264 -35 -510 -75 -99 -17 -192 -30 -207 -30 l-28
0 0 -1017 0 -1018 34 -20 c19 -11 87 -55 150 -98 109 -74 139 -107 99 -107
-15 0 -15 -2 -4 -9 15 -10 13 -26 -35 -301 -31 -176 -142 -699 -197 -930 l-42
-175 -3 -797 -2 -798 3735 0 c2055 0 3734 3 3732 8 -88 150 -130 225 -173 307
-28 55 -66 125 -83 156 -17 31 -45 89 -61 129 -17 41 -41 88 -55 106 -13 17
-33 55 -44 83 -10 28 -39 84 -64 124 -25 40 -120 222 -211 405 -153 305 -215
422 -320 599 -77 131 -216 481 -216 545 0 10 -4 18 -10 18 -19 0 -10 -44 36
-179 49 -147 131 -322 245 -521 39 -69 105 -192 145 -275 41 -82 84 -168 95
-190 57 -108 189 -375 189 -381 0 -14 -183 6 -216 24 -20 10 -78 77 -149 172
-65 85 -163 201 -219 258 -84 86 -114 110 -181 142 -105 51 -155 60 -184 31
-20 -20 -21 -31 -21 -188 1 -93 8 -231 17 -308 9 -77 18 -238 20 -358 l4 -218
-23 3 c-37 5 -157 200 -203 328 -24 68 -40 124 -121 425 -55 203 -106 455
-133 650 -28 201 -40 969 -21 1330 31 593 31 596 57 684 53 185 150 394 230
495 40 51 87 85 101 71 3 -2 8 -87 12 -187 6 -152 11 -192 28 -235 23 -55 88
-297 121 -449 18 -81 32 -151 62 -319 12 -67 53 -358 73 -520 26 -208 35 -258
44 -264 9 -6 21 -39 67 -173 28 -82 77 -165 168 -288 84 -114 85 -115 93 -108
3 3 -17 37 -44 75 -107 150 -122 174 -160 250 -78 157 -120 316 -162 623 -53
394 -62 446 -101 637 -43 208 -103 436 -150 576 -16 48 -19 86 -19 245 0 103
-5 227 -10 276 -6 59 -6 106 1 137 13 58 56 109 93 109 24 0 25 -2 18 -32 -4
-18 -7 -154 -7 -303 l0 -270 77 -225 c43 -126 84 -266 93 -318 8 -50 30 -127
47 -170 27 -67 45 -144 88 -373 6 -31 10 -148 10 -260 -1 -267 6 -288 151
-426 44 -43 87 -90 95 -105 38 -73 74 -310 89 -573 7 -117 28 -238 51 -294 21
-50 149 -170 212 -198 99 -43 128 -46 402 -33 235 11 259 14 307 36 70 33 144
110 228 235 118 178 300 421 368 493 76 81 82 80 117 -14 30 -81 109 -218 181
-313 33 -43 59 -82 59 -87 0 -5 -22 -41 -48 -82 -26 -40 -60 -93 -74 -118 -74
-126 -303 -273 -518 -332 -35 -9 -40 -13 -22 -16 57 -9 274 82 381 161 100 74
137 115 212 237 41 66 80 120 87 120 8 0 39 -20 70 -44 69 -52 193 -128 200
-122 2 3 -12 24 -31 48 -45 55 -147 248 -147 278 0 46 193 250 238 250 25 0
119 -265 137 -384 6 -43 5 -48 -8 -38 -8 7 -32 46 -53 88 -39 76 -62 106 -49
63 4 -13 34 -79 66 -145 l59 -122 0 -133 c0 -136 -13 -282 -31 -353 l-11 -39
-121 6 c-272 15 -489 18 -608 10 -123 -9 -130 -11 -225 -57 -214 -103 -238
-126 -289 -281 -34 -101 -35 -181 -5 -300 29 -118 55 -186 99 -263 l35 -62
1031 2 1030 3 8 170 c6 139 12 185 33 255 40 130 190 393 307 534 275 335 620
723 791 891 45 44 124 127 176 185 52 57 148 163 213 235 144 158 141 154 208
235 29 36 94 109 143 163 98 107 119 115 146 62 35 -70 26 -94 -174 -490 -180
-355 -223 -438 -358 -695 -182 -347 -209 -414 -252 -635 -27 -139 -63 -366
-75 -475 -25 -227 -30 -278 -37 -357 l-6 -83 906 0 906 0 0 2865 c0 2725 -1
2865 -18 2865 -9 0 -53 18 -97 39 -45 21 -121 53 -170 71 -132 46 -133 47
-222 170 -49 69 -150 194 -250 312 -9 10 48 -9 139 -46 84 -35 225 -89 313
-121 138 -50 248 -92 293 -112 9 -4 12 41 12 205 0 196 -1 212 -19 224 -31 22
-157 162 -140 156 13 -5 16 0 14 28 -1 19 2 34 7 34 4 0 8 7 8 16 0 9 -5 12
-12 8 -7 -5 -8 -3 -3 5 4 7 7 145 7 306 -1 385 9 365 -207 410 -71 15 -143 34
-159 43 -22 13 -54 67 -138 232 -94 184 -209 400 -308 579 -14 26 -43 78 -64
116 -22 39 -74 129 -117 200 -42 72 -87 151 -100 178 -13 26 -27 47 -32 47 -4
0 -6 4 -2 9 3 5 1 12 -4 15 -5 3 -7 15 -4 26 4 14 0 20 -11 20 -20 0 -20 10
-2 35 15 20 15 19 -44 92 -6 7 -5 13 2 15 8 3 9 11 3 24 -8 18 -8 18 -12 1 -7
-28 -33 -1 -33 33 0 16 -7 30 -15 34 -8 3 -15 14 -15 25 0 24 -16 36 -23 19
-3 -8 -6 -6 -6 5 -1 9 4 17 11 17 6 0 4 7 -5 18 -10 10 -17 24 -17 30 0 15
-41 102 -60 126 -50 64 -70 82 -96 84 -33 2 -97 50 -142 106 -36 43 -291 471
-355 593 -38 72 -68 155 -82 223 -4 19 -16 46 -26 59 -11 13 -19 31 -20 40 0
12 -2 11 -9 -4 -8 -18 -9 -18 -10 5 -1 28 -24 75 -37 75 -4 0 -6 8 -5 18 2 10
-2 16 -9 15 -7 -2 -16 13 -21 32 -5 19 -27 98 -49 175 -21 78 -39 145 -39 150
1 16 29 -38 30 -56 0 -8 6 -23 13 -32 10 -15 12 -7 13 46 1 35 4 80 8 100 8
42 -5 72 -33 80 -16 4 -21 -2 -29 -32 -7 -24 -10 -29 -11 -14 -1 12 4 33 10
47 10 21 15 23 31 15 22 -12 58 8 38 21 -7 4 -5 19 7 46 9 21 16 42 15 47 -1
4 1 6 5 6 5 -1 10 0 13 1 16 7 70 6 70 -1 0 -5 18 -9 41 -9 24 0 38 -4 34 -10
-4 -7 3 -7 20 0 38 14 42 13 49 -16 6 -23 11 -26 44 -21 46 6 129 -12 136 -29
3 -8 -1 -11 -12 -8 -9 2 -6 0 8 -7 14 -6 33 -15 43 -20 10 -5 21 -7 26 -5 13
9 54 -42 48 -58 -4 -9 1 -20 11 -26 12 -7 14 -12 5 -17 -7 -5 -11 -36 -11 -83
1 -86 -6 -144 -19 -180 -6 -14 -9 -88 -8 -165 1 -109 6 -163 25 -242 14 -60
28 -99 34 -96 5 4 7 0 3 -10 -3 -8 12 -55 33 -104 22 -48 40 -95 40 -103 0 -8
7 -24 15 -34 8 -11 15 -27 15 -35 1 -9 9 -34 20 -56 11 -22 19 -49 20 -61 0
-35 49 -64 176 -103 191 -59 330 0 422 179 23 45 42 94 42 108 1 15 7 48 13
74 20 73 61 94 123 64 16 -8 40 -20 54 -25 14 -6 32 -15 40 -20 8 -5 29 -15
45 -22 17 -7 38 -20 48 -28 9 -8 17 -10 17 -6 0 5 11 -2 24 -15 15 -13 32 -20
40 -17 9 4 16 1 16 -6 0 -8 3 -8 9 2 6 10 10 10 16 1 4 -6 13 -9 21 -6 8 3 11
0 8 -8 -6 -15 79 -51 100 -43 9 4 16 -3 20 -16 4 -16 8 -18 14 -9 6 9 14 7 31
-9 l23 -22 -7 24 c-7 21 -6 22 9 7 9 -9 16 -23 16 -30 1 -9 5 -7 14 5 14 19
36 23 36 7 0 -5 20 -10 45 -10 54 0 60 17 8 23 l-38 4 40 0 c58 0 112 13 126
29 6 8 20 14 30 14 19 0 19 39 19 1495 l0 1495 -4963 0 c-3964 0 -4964 -3
-4964 -12 0 -13 -111 -188 -119 -188 -2 0 3 14 11 31 18 34 12 75 -6 49 -9
-12 -10 -12 -5 3 3 10 6 21 6 24 0 3 9 -5 21 -18 l20 -24 -7 24 c-4 16 -3 21
5 17 18 -11 13 25 -6 47 -10 11 -12 17 -5 13 8 -5 12 0 12 13 0 21 -3 21 -364
21 l-363 0 -6 -67z m3277 -153 c252 -243 652 -750 857 -1087 53 -87 154 -250
224 -363 70 -113 161 -261 202 -330 41 -69 85 -138 97 -155 12 -16 33 -48 45
-70 99 -168 134 -231 171 -305 45 -91 109 -207 198 -358 30 -51 52 -95 49 -98
-11 -12 -139 -24 -155 -15 -26 14 -142 252 -312 639 -47 106 -70 144 -70 113
0 -12 156 -363 250 -562 44 -91 80 -172 82 -180 2 -11 -10 -13 -57 -11 -87 5
-247 31 -262 43 -10 9 3 28 62 91 41 44 75 84 75 89 0 16 -18 10 -32 -10 -25
-35 -112 -101 -134 -101 -12 0 -27 6 -33 14 -46 55 -381 697 -460 881 -62 146
-157 356 -333 740 -160 349 -227 471 -307 557 -64 67 -65 49 -6 -78 44 -94 55
-128 36 -109 -21 21 -330 644 -345 695 -9 29 -16 69 -16 88 l0 34 43 -33 c23
-18 82 -72 131 -119z m-998 18 c16 -15 16 -54 6 -505 -7 -268 -14 -623 -17
-788 -7 -382 -15 -575 -25 -575 -7 0 -90 179 -90 194 0 3 -16 48 -36 98 -54
139 -121 418 -135 561 -15 165 -8 870 10 912 14 35 77 103 106 116 34 15 162
6 181 -13z m-872 -49 c3 -17 6 -69 6 -116 0 -115 18 -411 30 -508 17 -124 117
-515 161 -626 41 -103 205 -440 219 -449 4 -3 10 -16 14 -30 l7 -25 -23 27
c-12 15 -40 63 -63 105 -23 43 -62 116 -88 163 -54 101 -132 272 -192 425 -52
131 -111 388 -132 570 -18 163 -13 402 10 458 19 45 42 48 51 6z m932 1 c-3
-17 -9 -285 -12 -595 -6 -435 -5 -565 5 -565 6 0 13 6 16 13 2 6 6 270 9 586
4 315 9 577 12 582 18 30 123 -27 211 -116 95 -97 151 -195 208 -367 37 -112
49 -166 61 -271 16 -151 18 -495 4 -767 -12 -238 -84 -802 -109 -849 -5 -9
-41 -30 -80 -48 -54 -24 -73 -28 -84 -19 -18 14 -144 190 -232 324 l-68 103
13 707 c7 389 15 843 17 1010 3 268 5 302 20 302 12 0 14 -7 9 -30z m-1026
-197 c0 -195 15 -346 51 -523 34 -167 42 -197 97 -340 126 -329 271 -595 459
-843 143 -188 292 -369 387 -467 57 -59 66 -73 60 -94 -5 -22 -3 -26 16 -26
27 0 58 -16 93 -48 21 -20 27 -22 27 -10 0 9 -64 81 -143 160 -153 152 -284
315 -383 475 -77 124 -259 476 -243 471 6 -2 25 -28 41 -58 98 -179 97 -177
352 -498 27 -34 68 -76 91 -94 23 -18 65 -61 94 -96 29 -35 71 -76 93 -93 45
-32 148 -141 148 -156 0 -6 -11 -15 -25 -21 -41 -19 -31 -35 18 -28 l44 7 82
-105 c45 -58 108 -128 139 -155 31 -27 54 -52 52 -55 -6 -6 -91 47 -148 93
-67 52 -60 30 10 -33 48 -44 102 -76 233 -141 93 -46 190 -89 215 -96 25 -7
52 -19 60 -27 13 -12 4 -13 -75 -7 -49 3 -100 9 -112 12 -38 9 -26 -15 14 -28
24 -7 67 -10 125 -6 93 6 117 -3 70 -27 -16 -8 -35 -22 -43 -32 -13 -16 -12
-17 16 -10 17 4 59 20 94 37 42 19 61 24 58 15 -15 -38 -128 -197 -181 -253
-60 -65 -69 -90 -19 -56 54 38 56 38 51 9 -7 -37 5 -29 44 29 18 27 46 56 63
64 16 8 36 20 43 28 8 7 35 27 60 44 26 18 67 50 91 73 34 32 41 36 31 16 -7
-14 -23 -36 -35 -50 -34 -37 -69 -202 -62 -289 6 -72 72 -261 92 -261 6 0 70
18 141 39 119 36 345 80 499 97 33 3 66 11 74 18 30 24 61 88 72 151 24 129
-19 243 -133 354 -83 80 -138 111 -197 111 -26 0 -41 4 -35 9 8 7 172 19 547
37 79 4 127 3 127 -3 0 -10 -100 -17 -395 -30 -77 -3 -142 -8 -145 -10 -5 -5
33 -36 67 -54 19 -10 45 -8 140 9 65 11 174 25 243 31 146 12 115 31 255 -154
50 -65 103 -133 119 -152 33 -38 30 -49 -8 -32 -14 7 -29 10 -32 6 -12 -12 8
-26 59 -41 45 -13 67 -30 167 -132 139 -140 212 -201 384 -319 l131 -90 8 -75
c5 -41 6 -181 4 -310 -5 -270 -9 -285 -105 -480 -97 -197 -235 -390 -347 -485
-91 -78 -64 -80 65 -5 136 80 311 243 418 392 19 27 36 47 39 45 7 -8 -37
-358 -57 -446 -22 -100 -51 -185 -85 -250 -49 -94 -351 -451 -610 -720 -135
-140 -544 -517 -716 -661 -220 -184 -271 -232 -290 -274 -10 -23 -19 -49 -19
-58 0 -43 133 -101 270 -118 41 -5 188 -14 325 -21 l250 -12 130 -77 c272
-162 435 -229 635 -260 148 -23 337 -3 371 39 9 11 21 59 28 113 54 399 201
816 350 988 52 60 36 0 -19 -70 -33 -42 -116 -221 -160 -345 -52 -148 -122
-450 -145 -623 l-7 -52 27 10 c43 16 67 31 134 82 35 27 68 47 74 45 20 -6 26
-66 37 -392 l11 -320 -46 -140 c-54 -167 -85 -285 -119 -460 -26 -133 -56
-353 -56 -412 0 -62 17 -33 24 40 10 107 63 426 87 525 48 197 87 321 194 612
26 69 53 145 62 170 17 48 33 73 33 51 0 -7 -20 -77 -44 -154 -41 -131 -46
-155 -56 -307 -15 -238 -16 -1430 -1 -1458 16 -30 43 -29 36 1 -3 12 -9 42
-15 67 -49 225 71 1104 230 1685 16 61 59 196 95 300 86 253 347 1024 389
1150 19 55 53 138 76 185 66 133 148 342 181 463 17 61 34 116 38 122 14 18
68 167 105 285 90 296 150 597 161 807 11 214 23 214 61 -2 25 -140 27 -170
28 -465 l1 -315 -42 -200 c-80 -375 -242 -960 -332 -1195 -75 -197 -266 -676
-324 -812 -39 -89 -97 -262 -137 -403 -104 -370 -106 -379 -85 -496 33 -191
45 -589 25 -814 -15 -176 -79 -436 -132 -540 -19 -35 -20 -51 -15 -145 14
-226 142 -678 182 -639 2 2 -3 36 -12 74 -12 57 -14 118 -9 325 3 140 10 291
16 335 19 143 50 321 75 436 14 61 25 123 25 136 0 15 5 23 13 21 8 -3 14 -40
18 -114 10 -181 31 -286 124 -614 66 -232 109 -485 131 -771 10 -125 -19 -412
-57 -561 -10 -42 -19 -94 -19 -115 0 -27 -13 -60 -44 -114 -56 -94 -103 -139
-60 -57 28 55 54 140 79 262 29 140 28 126 10 126 -8 0 -16 -10 -19 -22 -20
-107 -70 -289 -98 -360 -47 -114 -135 -247 -216 -325 -36 -35 -67 -61 -70 -58
-3 2 14 33 37 68 82 126 112 230 136 471 11 112 12 172 5 243 -6 52 -13 120
-16 151 -3 32 -10 80 -15 107 -14 67 -77 261 -101 307 -65 131 -135 409 -153
616 -7 69 -19 90 -32 56 -7 -20 31 -265 58 -363 11 -40 18 -75 16 -77 -10 -10
-51 51 -102 151 -61 119 -75 139 -75 112 0 -27 82 -183 155 -292 76 -116 86
-143 59 -158 -24 -13 -174 -163 -202 -202 -16 -23 -23 -27 -33 -18 -22 22 -69
207 -91 358 -23 164 -44 219 -35 95 17 -238 80 -451 199 -669 46 -85 40 -86
-59 -13 -113 83 -256 298 -343 515 -16 40 -27 57 -38 55 -39 -8 -398 -462
-479 -607 -42 -75 -84 -120 -127 -135 -101 -37 -303 -38 -402 -2 -114 40 -170
91 -313 283 -151 202 -211 306 -266 464 -65 183 -73 196 -164 281 -44 41 -87
90 -95 110 -17 39 -60 233 -101 453 -24 126 -23 127 57 62 177 -143 320 -231
451 -276 97 -34 198 -93 264 -155 38 -35 63 -52 63 -43 0 29 -122 127 -215
173 -50 24 -96 44 -103 44 -27 0 -187 83 -269 139 -48 33 -131 98 -183 145
l-95 86 -12 92 c-7 51 -25 134 -40 183 -27 85 -28 100 -27 270 2 217 36 623
56 662 30 59 182 319 196 336 30 35 39 26 172 -168 25 -36 103 -147 174 -247
129 -181 129 -181 137 -252 4 -39 13 -102 20 -141 16 -97 18 -440 2 -456 -17
-17 -155 5 -281 47 -58 19 -110 34 -118 34 -45 0 -60 -99 -25 -168 33 -65 213
-190 370 -258 82 -35 88 -36 205 -36 85 0 134 5 165 16 24 9 47 16 52 16 5 0
9 -34 9 -75 0 -41 4 -75 9 -75 24 0 24 174 0 340 -40 268 -158 517 -404 845
-45 61 -131 180 -190 265 -60 85 -139 198 -175 250 -37 52 -73 106 -80 120 -7
14 -30 48 -50 75 -20 28 -91 127 -157 220 -142 200 -182 241 -248 251 -63 9
-230 -3 -400 -28 -92 -14 -188 -22 -280 -22 -125 1 -149 3 -221 27 -132 44
-210 102 -369 278 -139 152 -182 197 -286 294 -30 28 -77 75 -104 105 -28 30
-78 79 -110 109 -33 30 -87 80 -120 111 -92 86 -204 180 -250 209 -67 43 -479
461 -494 501 -7 19 -19 49 -27 65 -55 115 -76 322 -69 698 l4 247 -35 53 c-19
28 -42 71 -51 95 -15 40 -15 45 3 84 10 23 31 58 45 78 l27 37 -25 29 c-13 16
-22 22 -20 14 5 -19 -14 -39 -30 -33 -8 3 -13 -3 -13 -15 0 -11 -3 -34 -7 -52
-5 -27 -3 -32 8 -25 11 7 12 6 3 -6 -7 -8 -14 -23 -16 -34 -3 -14 -7 -9 -13
18 -9 45 17 163 41 187 14 13 18 11 44 -20 16 -19 27 -37 25 -38 -2 -2 16 -22
41 -43 56 -49 96 -55 43 -6 -53 47 -54 61 -11 93 61 46 141 117 140 123 -5 17
15 101 23 101 5 0 9 4 9 10 0 22 -135 -61 -148 -92 -2 -5 -10 -8 -18 -8 -8 0
-14 -7 -14 -16 0 -9 -5 -12 -12 -8 -7 4 -4 -3 7 -17 15 -18 16 -20 3 -10 -13
10 -18 10 -18 2 0 -7 -4 -9 -10 -6 -5 3 -10 -1 -10 -10 0 -9 4 -14 9 -11 5 4
7 -3 4 -14 -8 -31 -20 -24 -27 16 -5 22 -3 41 4 49 29 35 183 141 260 180 99
49 156 69 93 31 -56 -32 -113 -76 -111 -84 1 -4 -6 -31 -16 -60 -15 -45 -17
-77 -14 -200 4 -130 8 -156 32 -222 15 -41 28 -85 29 -97 1 -13 7 -23 14 -23
6 0 49 25 95 56 45 31 110 73 143 93 33 20 104 72 159 115 75 60 110 96 147
154 27 41 49 78 49 83 0 4 29 32 65 63 74 63 62 63 215 -2 100 -43 234 -78
328 -87 l57 -6 -96 34 c-89 31 -194 86 -279 146 -51 36 -62 52 -49 68 9 10 35
11 113 7 124 -7 246 12 343 55 37 16 98 36 134 45 73 17 219 80 219 94 0 5
-25 3 -57 -4 -76 -18 -222 -18 -315 0 -85 17 -235 63 -242 75 -8 12 92 151
108 151 16 0 137 -42 200 -69 27 -12 92 -28 145 -36 53 -8 112 -17 131 -21 56
-11 24 10 -65 41 -96 34 -219 95 -299 148 l-58 39 6 42 c4 22 16 50 26 61 11
11 46 77 80 145 88 183 128 258 140 265 20 12 49 -6 59 -38 5 -18 12 -54 15
-82 7 -60 66 -276 92 -337 36 -84 79 -161 92 -166 11 -3 11 2 -1 24 -36 70
-58 187 -63 333 -6 166 -9 191 -27 191 -9 0 -10 -22 -5 -92 9 -136 9 -213 0
-203 -10 11 -57 201 -72 290 -13 80 -40 103 -167 138 -115 33 -366 151 -479
227 -366 246 -679 611 -889 1035 -151 305 -217 512 -260 816 -28 201 -32 351
-11 507 11 86 21 118 61 202 27 55 52 100 57 100 4 0 8 -66 8 -147z m1962
-123 c213 -430 410 -834 438 -900 15 -36 64 -132 109 -213 44 -82 81 -151 81
-153 0 -3 -4 -3 -10 1 -9 6 -120 172 -120 180 0 2 -36 63 -80 134 -44 72 -80
134 -80 137 0 3 -10 20 -22 36 -18 26 -115 206 -225 418 -71 138 -205 438
-219 490 -18 68 -18 113 -1 108 6 -2 64 -109 129 -238z m-2681 207 c-10 -9
-11 -8 -5 6 3 10 9 15 12 12 3 -3 0 -11 -7 -18z m7383 -123 c3 -8 16 -14 28
-14 13 0 36 -7 52 -15 15 -8 35 -15 42 -15 8 0 14 -5 14 -11 0 -6 14 -24 30
-41 18 -17 31 -41 32 -59 1 -16 3 -41 4 -56 3 -42 4 -275 1 -298 -6 -39 -14
-42 -99 -39 -60 3 -86 8 -94 19 -18 24 -23 18 -19 -21 4 -42 3 -42 -32 22 -16
28 -52 88 -81 135 -116 185 -166 266 -184 299 l-20 35 31 -34 c30 -34 31 -34
50 -16 11 9 23 26 27 37 3 10 17 23 30 28 14 6 24 18 24 30 0 20 14 27 24 11
7 -10 86 5 100 19 11 11 33 2 40 -16z m-4753 -200 c33 -69 58 -128 55 -131
-14 -14 -126 206 -126 249 0 24 17 -4 71 -118z m-251 14 c13 -46 42 -147 66
-226 82 -272 110 -577 100 -1102 -7 -420 -9 -436 -50 -461 -28 -18 -98 -46
-153 -63 l-23 -7 0 249 c0 137 -3 298 -7 358 -6 86 -9 33 -13 -253 -3 -249 -9
-366 -16 -373 -16 -16 -88 -40 -95 -32 -4 4 3 70 16 147 30 181 63 424 75 545
5 52 14 122 20 155 6 33 9 76 7 95 -2 19 4 226 14 460 10 234 19 462 19 508 0
45 4 82 8 82 5 0 19 -37 32 -82z m-1925 -204 c-22 -70 -25 -90 -16 -110 6 -14
11 -64 11 -112 1 -106 25 -459 40 -562 5 -42 19 -107 31 -145 11 -39 25 -89
31 -112 6 -24 14 -43 17 -43 3 0 7 153 8 339 0 187 4 345 8 352 11 18 20 -3
49 -117 29 -116 77 -256 136 -399 23 -55 46 -116 52 -135 74 -260 250 -646
432 -945 91 -150 211 -322 275 -395 31 -36 78 -92 103 -126 49 -64 117 -129
125 -120 3 3 -20 33 -51 66 -89 96 -90 101 -76 249 6 69 15 130 21 135 5 6 38
-1 86 -18 113 -41 214 -74 247 -81 26 -5 28 -9 22 -40 -4 -18 -26 -92 -50
-165 -23 -72 -38 -129 -32 -127 6 2 34 70 61 151 33 99 56 151 69 158 23 13
119 -6 136 -27 8 -10 1 -48 -29 -157 -42 -151 -107 -347 -121 -361 -11 -12
-43 7 -134 80 -43 35 -81 61 -85 57 -8 -9 92 -99 186 -166 87 -63 228 -144
267 -154 30 -7 57 -34 34 -34 -63 0 -285 111 -401 201 -49 38 -93 69 -98 69
-22 0 -5 -19 56 -64 62 -46 84 -73 48 -59 -73 28 -327 202 -454 310 -287 248
-490 515 -684 904 -61 123 -108 248 -164 436 -12 40 -26 75 -31 78 -13 8 -13
2 9 -90 58 -241 253 -636 444 -900 117 -162 321 -377 451 -475 30 -23 56 -47
59 -54 3 -7 1 -46 -4 -87 -11 -97 -11 -115 0 -103 4 5 14 44 21 87 7 42 15 77
19 77 11 0 171 -114 171 -122 0 -15 -91 -148 -102 -148 -6 0 -35 16 -64 35
-59 40 -76 44 -49 15 40 -44 314 -194 425 -232 98 -34 183 -50 300 -56 98 -6
112 -9 93 -20 -28 -16 -137 -33 -248 -39 -152 -9 -338 26 -492 91 -34 14 -70
26 -80 26 -72 0 184 -97 328 -125 45 -8 121 -15 170 -15 146 0 108 -26 -75
-50 -219 -30 -434 43 -662 225 -91 74 -248 235 -272 282 -16 30 -8 42 18 25
11 -7 25 -12 32 -12 17 1 -30 40 -48 40 -7 0 -31 9 -53 21 -29 15 -49 18 -74
14 -52 -10 -70 0 -107 57 l-33 51 29 21 c45 31 149 134 143 140 -3 3 -29 -11
-58 -30 -29 -20 -76 -42 -104 -51 l-51 -15 -23 28 c-13 16 -44 65 -70 109 -25
44 -59 100 -74 125 -106 171 -245 624 -315 1025 -26 150 -30 215 -14 215 19 0
41 -76 56 -185 39 -308 100 -468 273 -727 139 -208 337 -426 556 -612 138
-118 313 -248 326 -244 6 2 -35 39 -92 83 -384 291 -658 581 -840 889 -71 121
-110 220 -154 396 -45 177 -55 271 -55 533 0 280 18 441 74 665 8 32 17 82 21
112 14 109 51 243 78 278 21 27 18 -1 -8 -84z m2186 -216 c24 -47 179 -306
230 -385 19 -28 64 -98 101 -155 36 -56 123 -181 192 -277 69 -96 126 -177
126 -182 0 -7 -118 -49 -138 -49 -8 0 -84 98 -186 240 -43 59 -195 305 -263
422 -83 145 -82 145 -91 284 -11 162 -7 173 29 102z m1196 -324 c51 -88 44
-77 159 -259 56 -88 152 -243 214 -345 62 -102 125 -203 140 -225 33 -47 178
-292 315 -530 141 -243 260 -494 274 -576 14 -83 14 -79 -8 -79 -22 0 -78 59
-189 198 -81 102 -93 126 -69 135 6 3 2 6 -10 6 -20 1 -82 66 -72 75 2 2 21
11 42 19 20 9 37 21 37 26 0 14 1 14 -50 -4 -30 -11 -47 -12 -55 -5 -19 16
-137 214 -185 310 -23 47 -57 110 -75 140 -18 30 -36 66 -40 80 -4 14 -40 95
-80 180 -84 177 -206 452 -356 799 -54 125 -53 121 -40 121 5 0 27 -30 48 -66z
m-3652 -549 c9 -99 23 -228 31 -287 14 -98 14 -116 0 -200 -33 -195 -38 -284
-35 -673 2 -214 0 -400 -4 -412 -5 -13 -5 -28 -1 -34 3 -6 8 -43 10 -82 19
-370 22 -491 13 -567 -5 -47 -11 -142 -12 -212 -2 -124 -10 -162 -22 -95 -12
71 -25 321 -25 477 0 191 -9 300 -23 300 -14 0 -2 -432 18 -669 9 -101 13
-192 10 -202 -3 -10 1 -39 9 -64 9 -26 16 -79 16 -124 l0 -78 -39 -28 c-22
-15 -45 -25 -52 -23 -13 4 -44 102 -89 278 -48 188 -60 256 -81 450 -28 255
-35 420 -19 430 15 9 15 137 -1 449 -20 403 22 968 92 1231 62 230 77 274 150
425 l34 70 2 -90 c2 -49 10 -171 18 -270z m4493 258 c50 -81 159 -301 221
-449 139 -329 318 -947 375 -1289 82 -494 64 -882 -62 -1325 -38 -134 -152
-309 -294 -452 -86 -86 -207 -183 -216 -173 -3 2 13 24 36 49 40 43 115 154
184 271 143 243 276 712 338 1200 24 180 23 165 7 165 -10 0 -19 -49 -36 -182
-30 -253 -107 -635 -136 -674 -10 -14 -13 27 -18 212 -7 300 -30 513 -89 854
-44 254 -47 272 -58 415 -16 212 -57 500 -96 675 -8 36 -24 108 -35 160 -31
137 -95 375 -129 482 -41 127 -40 137 8 61z m3022 -158 c13 -30 40 -129 36
-133 -5 -5 -76 210 -76 228 1 8 8 -5 16 -30 8 -25 19 -54 24 -65z m-8464 -411
c-30 -137 -76 -357 -102 -489 -39 -199 -62 -287 -136 -515 -157 -480 -198
-641 -235 -921 -18 -144 -25 -529 -11 -689 l8 -85 -45 50 c-90 102 -140 213
-182 406 -15 70 -18 132 -18 369 0 186 5 315 13 370 61 390 239 876 485 1320
92 167 266 444 274 436 2 -2 -21 -115 -51 -252z m1689 184 c25 -50 51 -90 165
-253 26 -38 53 -88 60 -110 28 -97 95 -295 117 -344 13 -30 21 -56 19 -58 -13
-13 -204 338 -279 512 -144 335 -132 305 -118 305 6 0 22 -23 36 -52z m2432
-75 c15 -21 30 -40 33 -43 3 -3 39 -45 80 -95 41 -49 129 -149 195 -222 115
-127 238 -303 212 -303 -33 0 -698 627 -697 656 0 17 68 43 112 43 31 1 41 -5
65 -36z m-907 -358 c-6 -8 -36 -23 -66 -35 -63 -23 -64 -23 -64 -10 0 12 96
58 124 59 15 1 16 -2 6 -14z m81 -41 c-5 -73 -15 -89 -74 -123 -30 -17 -71
-48 -90 -67 -33 -34 -36 -35 -45 -17 -6 11 -8 47 -4 90 l7 71 95 50 c52 28
100 49 105 48 6 -2 8 -25 6 -52z m649 -13 c201 -22 392 -56 435 -79 17 -8 75
-54 131 -102 55 -47 122 -101 148 -119 26 -18 44 -37 39 -41 -4 -4 -141 -13
-303 -19 -397 -15 -427 -19 -561 -76 -87 -37 -106 -49 -236 -153 l-92 -73 -43
11 c-101 27 -167 52 -183 70 -16 18 -17 31 -8 138 11 137 28 181 115 297 43
57 65 76 118 103 62 31 171 59 235 61 17 0 109 -8 205 -18z m-896 -22 c-7 -13
-106 -60 -112 -54 -9 9 13 28 52 46 46 21 70 24 60 8z m-5 -217 l-13 -160 -27
13 c-40 21 -118 113 -113 133 2 9 10 40 17 69 6 29 17 57 24 64 19 19 108 57
116 49 5 -4 3 -80 -4 -168z m5699 48 c12 -23 19 -46 16 -52 -4 -6 -2 -8 3 -5
14 9 23 -3 68 -88 42 -80 42 -80 113 -194 28 -47 52 -90 52 -97 0 -7 4 -14 8
-16 7 -2 68 -87 134 -187 24 -35 36 -65 32 -73 -7 -10 -157 -1 -204 13 -22 7
-40 17 -40 23 0 6 -5 4 -10 -4 -8 -13 -10 -13 -10 1 0 9 -6 16 -14 16 -11 0
-12 -6 -5 -24 5 -13 5 -22 0 -19 -18 12 -89 255 -121 421 -7 33 -27 121 -45
195 -18 74 -36 153 -39 175 l-5 40 22 -42 c12 -23 32 -60 45 -83z m-5838 96
c0 -16 -13 -21 -77 -31 -29 -5 -43 -3 -43 4 0 6 1 11 3 11 1 0 20 7 42 15 52
18 75 19 75 1z m485 5 c-6 -5 -21 -11 -35 -15 -21 -5 -20 -3 5 9 35 17 42 18
30 6z m-119 -83 c-3 -29 -11 -126 -17 -215 -11 -150 -14 -163 -31 -163 -26 0
-57 17 -90 48 -31 29 -38 72 -12 72 14 0 16 9 10 71 -4 39 -12 83 -17 97 -9
22 -5 30 28 65 38 39 96 76 122 77 10 0 12 -12 7 -52z m-386 10 c0 -29 -13
-58 -26 -58 -15 0 -44 38 -44 57 0 8 13 13 35 13 21 0 35 -5 35 -12z m-2360
-136 c0 -203 17 -528 41 -770 23 -234 22 -328 -6 -572 -23 -210 -16 -737 14
-970 46 -356 126 -609 254 -802 51 -76 169 -186 239 -223 56 -29 61 -50 8 -39
-173 38 -308 138 -425 318 -25 38 -50 63 -71 72 -109 45 -245 402 -289 759
-42 331 -47 415 -42 714 10 655 63 1075 178 1407 28 82 58 170 66 197 8 26 19
47 24 47 5 0 9 -60 9 -138z m2580 -24 c0 -5 -4 -8 -10 -8 -5 0 -10 10 -10 23
0 18 2 19 10 7 5 -8 10 -18 10 -22z m-909 -27 c30 -20 83 -49 117 -65 44 -21
64 -37 68 -53 6 -22 -13 -224 -22 -232 -8 -8 -84 72 -129 134 -48 67 -137 243
-129 256 6 11 29 2 95 -40z m2757 -87 c45 -4 85 -11 88 -15 3 -5 -2 -9 -10 -9
-9 0 -16 -6 -16 -14 0 -13 41 -26 86 -26 12 0 26 -5 30 -12 5 -8 -23 -9 -115
-4 -164 9 -177 12 -201 51 -27 44 -26 48 18 41 20 -3 74 -9 120 -12z m387 -30
c14 -15 25 -31 25 -35 0 -12 -123 -11 -155 1 -15 6 -25 16 -23 23 4 9 72 30
121 36 4 1 19 -11 32 -25z m800 -99 c17 -54 36 -100 43 -103 8 -2 10 6 7 25
-21 134 -25 166 -22 170 13 12 249 -298 371 -488 48 -75 95 -145 104 -155 38
-42 61 -84 101 -189 24 -60 48 -119 55 -130 21 -33 94 -199 122 -277 89 -250
244 -738 244 -772 0 -25 -20 15 -39 79 -30 100 -165 430 -169 413 -2 -9 4 -58
12 -109 28 -171 39 -393 27 -546 -17 -232 -31 -283 -150 -535 -74 -157 -222
-378 -357 -533 -95 -108 -260 -248 -405 -341 -82 -54 -305 -164 -330 -164 -32
0 -21 16 24 36 23 10 96 47 162 82 368 195 670 511 864 901 87 176 129 290
150 407 14 76 14 386 1 530 -14 151 -57 385 -86 471 -49 147 -225 475 -390
724 -120 182 -243 334 -252 311 -1 -4 23 -66 54 -137 79 -185 140 -350 184
-500 20 -71 62 -215 93 -320 30 -104 72 -246 92 -315 21 -69 45 -154 55 -190
11 -36 26 -82 34 -102 22 -52 20 -65 -5 -42 -23 20 -252 363 -304 455 -16 29
-34 54 -40 56 -6 2 -10 -73 -11 -210 -1 -348 -53 -589 -171 -789 -67 -114
-176 -228 -218 -228 -15 0 -2 30 21 45 63 41 148 146 197 241 90 176 154 593
138 904 l-6 135 -45 80 c-24 44 -59 110 -78 146 l-33 66 3 204 c1 112 2 274 2
359 -1 148 -3 157 -29 209 -27 52 -75 193 -75 219 0 8 6 12 12 10 7 -3 27 -49
43 -103z m-990 20 c10 -3 104 -161 118 -198 12 -32 178 -298 240 -385 69 -97
223 -271 267 -302 29 -20 39 -40 22 -40 -13 0 -199 127 -277 188 -141 113
-352 331 -474 492 -120 159 -181 244 -181 254 0 6 265 -3 285 -9z m264 -27
c10 -13 64 -80 120 -150 55 -70 118 -139 140 -154 24 -15 45 -40 54 -62 8 -21
14 -38 12 -40 -8 -9 -69 27 -150 88 -84 63 -335 312 -335 332 0 4 32 8 70 8
60 0 73 -3 89 -22z m-176 -8 c8 -12 40 -48 72 -81 31 -33 55 -63 52 -65 -2 -2
-10 2 -17 11 -7 8 -18 15 -24 15 -22 0 -116 109 -116 134 0 13 20 5 33 -14z
m-823 -34 c0 -2 -11 -6 -25 -8 -13 -3 -22 -1 -19 3 5 9 44 13 44 5z m-1395
-46 c3 -5 1 -10 -4 -10 -6 0 -11 5 -11 10 0 6 2 10 4 10 3 0 8 -4 11 -10z
m2401 -148 c149 -110 227 -163 281 -191 49 -24 46 -17 73 -204 22 -151 25
-197 11 -197 -8 0 -116 109 -183 185 -45 50 -199 283 -263 395 -26 47 -50 88
-52 93 -12 21 26 -2 133 -81z m-1249 27 c42 -16 73 -49 73 -80 0 -30 -14 -38
-68 -40 -20 -1 19 -5 87 -10 183 -11 174 -7 169 -87 -5 -77 -41 -177 -68 -192
-10 -6 -85 -21 -167 -35 -81 -14 -211 -41 -288 -60 -77 -19 -145 -35 -151 -35
-15 0 -62 100 -70 148 -5 35 -3 38 40 65 49 31 73 55 41 44 -9 -4 -25 -2 -34
5 -15 12 -15 11 -1 -6 13 -17 13 -19 0 -14 -39 12 -3 132 61 203 37 41 122 84
187 95 70 12 157 11 189 -1z m-2747 -118 c0 -9 -41 -23 -49 -16 -3 4 28 20 47
24 1 1 2 -3 2 -8z m110 -25 c0 -2 -7 -6 -15 -10 -8 -3 -15 -1 -15 4 0 6 7 10
15 10 8 0 15 -2 15 -4z m-277 -13 c-13 -2 -33 -2 -45 0 -13 2 -3 4 22 4 25 0
35 -2 23 -4z m157 -63 c23 -7 36 -7 38 0 6 18 30 10 51 -16 26 -33 28 -54 2
-28 -10 10 -17 22 -14 27 2 4 -5 7 -17 7 -12 0 -18 -4 -15 -10 6 -10 -20 -7
-115 15 l-55 13 45 1 c25 1 61 -4 80 -9z m-200 -30 c0 -5 -5 -10 -11 -10 -5 0
-7 5 -4 10 3 6 8 10 11 10 2 0 4 -4 4 -10z m270 -48 l104 -37 108 -128 c59
-71 108 -132 108 -136 0 -4 -57 -17 -126 -29 -70 -12 -146 -31 -170 -42 -42
-18 -118 -73 -194 -139 -19 -17 -40 -31 -45 -31 -7 0 -10 43 -7 128 5 182 67
452 104 452 7 0 60 -17 118 -38z m-273 -74 c-2 -18 -4 -6 -4 27 0 33 2 48 4
33 2 -15 2 -42 0 -60z m472 46 c23 -5 47 -27 100 -93 121 -151 287 -298 435
-383 99 -57 134 -81 188 -133 26 -24 86 -70 134 -100 47 -31 84 -58 81 -61 -2
-3 -57 18 -120 46 -64 27 -120 50 -126 50 -5 0 -78 46 -163 101 -209 139 -322
240 -488 436 -120 142 -123 153 -41 137z m933 -98 c35 -18 75 -37 91 -40 15
-4 27 -11 27 -17 0 -12 -86 -146 -99 -154 -8 -4 -153 66 -179 88 -7 5 -10 17
-7 25 13 34 81 132 92 132 7 0 41 -15 75 -34z m-1373 -176 c0 -107 -17 -57
-19 56 -2 49 -1 94 0 99 6 23 19 -85 19 -155z m8147 146 c31 -31 375 -571 474
-745 158 -275 431 -807 448 -873 l10 -38 -75 0 c-144 0 -191 -34 -180 -129 3
-25 9 -55 12 -66 4 -11 -21 30 -56 90 -282 496 -408 699 -570 915 -164 219
-235 335 -170 276 20 -18 41 -14 41 7 0 7 -4 6 -10 -3 -5 -8 -12 -11 -16 -7
-4 3 -2 12 3 19 18 22 22 65 28 268 5 197 18 300 36 300 6 0 17 -6 25 -14z
m-8341 -150 c9 -48 14 -90 12 -92 -8 -8 -37 112 -37 151 0 56 6 42 25 -59z
m818 -53 c24 -21 65 -55 90 -76 26 -21 51 -46 57 -56 9 -18 1 -19 -218 -18
-253 0 -258 -1 -411 -87 -35 -20 -74 -39 -87 -42 -22 -6 -24 -3 -24 27 0 27
10 42 58 86 31 30 87 74 123 99 59 41 78 48 175 65 60 11 125 24 144 28 19 5
38 9 42 10 4 0 27 -16 51 -36z m-1239 -105 c4 -35 11 -88 16 -118 34 -194 33
-458 -1 -895 -23 -295 -41 -230 -74 271 -12 183 -13 264 -5 390 17 256 29 405
36 415 12 19 21 -2 28 -63z m1484 -98 c32 -19 43 -52 22 -65 -10 -6 -77 45
-93 72 -12 20 32 16 71 -7z m-1038 -97 c18 -38 38 -71 44 -75 8 -5 7 -8 -1 -8
-7 0 -13 -4 -13 -10 0 -16 27 -12 45 6 9 9 19 13 23 9 10 -10 -38 -46 -56 -43
-8 2 -23 26 -32 53 -9 28 -27 72 -38 98 -32 72 -9 47 28 -30z m1370 47 c0 -5
-2 -10 -4 -10 -3 0 -8 5 -11 10 -3 6 -1 10 4 10 6 0 11 -4 11 -10z m-195 -43
c39 -24 70 -50 70 -58 0 -7 -30 -38 -67 -67 -47 -38 -68 -61 -68 -77 0 -26
-88 -145 -107 -145 -20 0 -16 11 22 70 19 30 35 58 35 62 0 4 -12 6 -27 5 -27
-2 -28 0 -27 44 0 36 8 57 35 95 20 28 45 50 57 52 25 4 29 17 7 26 -15 5 -21
36 -7 36 4 0 39 -20 77 -43z m-210 -3 c15 -4 22 -11 18 -20 -7 -20 -18 -18
-50 12 -20 18 -22 24 -10 20 11 -3 29 -9 42 -12z m-876 -57 c1 -5 -3 -5 -9 -2
-5 3 -10 16 -9 28 0 21 1 21 9 2 5 -11 9 -24 9 -28z m941 34 c0 -6 -4 -13 -10
-16 -5 -3 -10 -15 -10 -26 0 -23 -13 -25 -30 -4 -15 18 -4 36 17 28 12 -5 15
-2 10 10 -4 11 -1 17 8 17 8 0 15 -4 15 -9z m-567 -98 c-7 -3 -13 -11 -13 -19
0 -17 -36 -19 -46 -2 -4 7 -3 8 4 4 7 -4 22 2 34 13 12 12 24 18 27 15 3 -4 0
-9 -6 -11z m390 -26 l49 -12 -41 -44 c-23 -24 -41 -45 -41 -47 0 -1 35 -2 77
-3 42 0 81 -5 85 -9 5 -5 -7 -28 -27 -53 -19 -24 -41 -56 -47 -71 -7 -15 -25
-32 -40 -37 -35 -12 -37 -25 -3 -17 48 12 24 -21 -45 -61 -19 -11 -73 -44
-120 -72 -47 -28 -94 -51 -105 -51 -14 0 -26 12 -37 39 -34 78 -33 88 6 131
39 43 49 64 15 34 -17 -16 -22 -16 -29 -4 -8 12 -10 9 -10 -10 0 -20 -2 -22
-10 -10 -13 20 -3 134 14 168 36 68 151 141 221 141 22 -1 62 -6 88 -12z
m-403 -25 c0 -5 -6 -16 -13 -27 -11 -14 -16 -15 -22 -5 -5 8 -4 11 3 6 6 -3
13 3 17 14 6 20 15 27 15 12z m540 -15 c0 -20 -8 -26 -55 -39 -30 -8 -55 -12
-55 -7 0 13 74 69 92 69 12 0 18 -8 18 -23z m-625 -72 c-27 -24 -52 -42 -54
-39 -6 6 81 83 94 83 6 0 -12 -20 -40 -44z m-1711 -625 c6 -11 6 -12 -2 -5
-13 12 -67 173 -87 259 -25 103 -19 143 48 346 l22 65 5 -325 c3 -179 9 -332
14 -340z m1638 558 c-7 -7 -12 -8 -12 -2 0 14 12 26 19 19 2 -3 -1 -11 -7 -17z
m-1230 -124 c6 -53 20 -121 73 -374 42 -197 105 -380 190 -550 25 -51 34 -83
38 -145 21 -286 30 -372 48 -470 36 -194 36 -188 0 -128 -31 52 -51 73 -51 53
0 -6 31 -71 69 -145 l70 -135 -22 -15 c-42 -29 -53 -20 -125 108 -181 319
-286 569 -325 773 -19 95 -29 254 -18 254 5 0 23 -42 39 -92 45 -135 72 -205
147 -373 70 -159 90 -195 105 -195 6 0 -10 40 -34 88 -149 297 -216 509 -236
742 -11 132 -13 430 -3 573 7 111 24 126 35 31z m1168 58 c0 -5 -11 -19 -25
-32 -29 -27 -32 -21 -9 15 16 24 34 33 34 17z m-341 -294 c33 -187 156 -600
201 -673 25 -40 27 -63 4 -44 -17 14 -135 246 -165 324 -11 28 -24 59 -29 70
-20 42 -120 317 -120 330 0 15 66 65 86 65 6 0 16 -33 23 -72z m7342 -574 c5
-77 11 -157 14 -179 3 -22 9 -85 15 -140 26 -264 78 -579 117 -700 13 -41 15
-79 9 -230 -5 -161 -23 -356 -42 -462 -21 -124 -120 -450 -132 -438 -7 7 -26
208 -38 390 -6 90 -12 120 -34 165 -41 84 -67 156 -91 250 -18 75 -21 114 -21
335 l-1 250 37 135 c76 285 105 444 121 670 4 52 10 99 12 103 14 24 25 -24
34 -149z m-7805 -280 c21 -27 29 -50 32 -92 4 -56 -21 -231 -37 -259 -4 -9
-13 41 -20 124 -6 76 -14 166 -18 201 -7 73 3 79 43 26z m967 -302 c30 -32 34
-42 13 -42 -8 0 -17 9 -21 19 -6 20 -35 37 -35 21 0 -6 6 -10 13 -11 7 0 6 -3
-3 -6 -8 -4 -20 -13 -27 -22 -8 -10 -12 -11 -13 -4 0 6 5 15 10 18 6 3 10 12
10 18 -1 7 -9 2 -19 -10 -11 -13 -28 -23 -39 -23 -11 0 -28 -7 -37 -17 -10 -9
-20 -12 -23 -7 -12 16 -45 10 -48 -8 -1 -10 3 -18 9 -18 5 0 7 -3 4 -6 -4 -4
-13 -1 -22 6 -9 7 -18 10 -22 6 -3 -3 -1 -6 5 -6 7 0 12 -4 12 -9 0 -5 -10 -7
-22 -5 -13 2 -17 2 -10 -2 21 -10 13 -26 -9 -19 -15 5 -19 4 -15 -4 4 -7 2
-10 -5 -9 -7 2 -13 -1 -14 -7 -1 -18 -34 -59 -42 -51 -4 4 3 16 17 26 14 11
20 20 14 20 -6 0 -17 -7 -25 -16 -7 -8 -30 -24 -52 -35 -21 -11 -37 -23 -34
-25 3 -3 20 2 39 11 33 17 33 17 13 -2 -11 -11 -30 -19 -43 -18 -24 2 -96 -48
-85 -59 10 -10 25 -7 18 3 -3 5 -1 12 4 15 5 3 11 -3 14 -14 3 -11 1 -18 -3
-15 -5 3 -11 -1 -13 -7 -4 -10 -8 -9 -16 2 -9 13 -12 12 -24 -4 -8 -11 -19
-16 -25 -12 -6 3 -13 2 -17 -4 -3 -5 -1 -10 6 -10 6 0 0 -10 -15 -21 -15 -12
-38 -21 -51 -21 -26 0 -109 -80 -97 -93 4 -5 1 -5 -6 -1 -7 4 -10 13 -6 19 3
7 0 5 -8 -4 -7 -8 -21 -18 -31 -22 -9 -3 -16 -12 -15 -19 2 -7 -6 -13 -17 -14
-12 0 -31 -6 -43 -13 -12 -6 -22 -8 -22 -4 0 4 33 29 73 55 39 26 110 77 157
113 47 36 91 63 98 60 7 -3 11 -1 8 4 -3 5 36 40 86 78 51 37 129 97 173 132
120 97 162 121 210 121 32 0 47 -6 68 -28z m-83 -71 c0 -8 -116 -61 -133 -60
-6 0 14 13 46 29 32 15 52 30 45 33 -7 2 -1 4 15 4 15 0 27 -2 27 -6z m40 5
c0 -11 -19 -15 -25 -6 -3 5 1 10 9 10 9 0 16 -2 16 -4z m-140 -16 c0 -5 -2
-10 -4 -10 -3 0 -8 5 -11 10 -3 6 -1 10 4 10 6 0 11 -4 11 -10z m338 -54 c55
-41 226 -231 240 -266 20 -53 115 -177 241 -313 149 -161 214 -235 230 -265 5
-9 13 -13 17 -9 14 13 -65 112 -217 272 -141 148 -245 283 -237 307 12 35 578
-492 578 -538 0 -6 -11 -55 -25 -108 -16 -63 -52 -155 -105 -267 -45 -94 -79
-177 -76 -184 3 -9 0 -12 -10 -8 -23 9 -17 44 41 214 30 89 55 176 55 193 -1
33 -112 -287 -151 -434 -20 -77 -27 -90 -75 -136 -29 -29 -89 -73 -133 -100
-45 -26 -112 -77 -151 -112 -76 -69 -97 -65 -28 5 23 24 38 43 32 43 -5 0 -32
-22 -59 -50 -57 -58 -79 -63 -94 -19 -34 99 9 202 139 331 l88 88 7 77 c10
120 24 181 51 212 30 36 31 48 1 28 -22 -14 -28 -12 -128 52 -57 37 -130 91
-161 120 l-57 52 -52 -15 c-29 -9 -67 -16 -84 -16 -38 0 -55 -18 -81 -83 -27
-68 -82 -137 -139 -175 -94 -61 -113 -82 -156 -161 -94 -176 -265 -336 -504
-470 -83 -46 -183 -104 -224 -128 -40 -23 -80 -43 -87 -43 -7 0 -25 21 -40 48
-153 266 -197 331 -284 421 -176 179 -267 218 -545 232 -203 10 -250 16 -154
18 61 1 69 4 110 39 120 104 212 165 325 216 158 71 392 180 429 200 51 27
207 96 270 120 33 13 80 32 105 44 25 11 73 32 107 46 35 14 86 37 115 50 29
13 73 32 98 43 38 17 208 144 260 194 90 87 268 216 354 254 73 34 95 31 164
-19z m-239 0 c-16 -15 -174 -116 -182 -116 -13 0 73 66 126 96 36 20 69 32 56
20z m-195 -137 c-3 -5 -10 -7 -15 -3 -5 3 -7 10 -3 15 3 5 10 7 15 3 5 -3 7
-10 3 -15z m-174 -4 c0 -8 -2 -15 -4 -15 -2 0 -6 7 -10 15 -3 8 -1 15 4 15 6
0 10 -7 10 -15z m50 -99 c0 -2 -7 -9 -15 -16 -13 -11 -14 -10 -9 4 5 14 24 23
24 12z m-240 -41 c-7 -8 -17 -15 -22 -15 -6 0 -5 7 2 15 7 8 17 15 22 15 6 0
5 -7 -2 -15z m-246 -130 c-4 -8 -10 -13 -14 -10 -4 2 -15 -4 -25 -15 -10 -11
-23 -17 -29 -13 -6 4 -5 -1 3 -10 9 -12 10 -17 2 -17 -7 0 -10 -4 -7 -9 3 -4
-5 -6 -18 -4 -13 3 -49 -7 -81 -22 -32 -14 -60 -24 -62 -21 -3 2 15 13 39 24
24 11 77 40 118 66 41 25 76 46 77 46 1 0 0 -7 -3 -15z m71 5 c-3 -5 -12 -10
-18 -10 -7 0 -6 4 3 10 19 12 23 12 15 0z m125 -26 c0 -8 -19 -13 -24 -6 -3 5
1 9 9 9 8 0 15 -2 15 -3z m-350 -104 c0 -5 -2 -10 -4 -10 -3 0 -8 5 -11 10 -3
6 -1 10 4 10 6 0 11 -4 11 -10z m-75 -30 c3 -6 -1 -7 -9 -4 -18 7 -21 14 -7
14 6 0 13 -4 16 -10z m2150 -361 c-16 -84 -49 -209 -61 -234 l-14 -30 4 30 c6
52 61 255 68 255 4 0 5 -10 3 -21z m-3355 -279 c0 -5 -10 -10 -22 -10 -19 0
-20 2 -8 10 19 13 30 13 30 0z m53 3 c-7 -2 -19 -2 -25 0 -7 3 -2 5 12 5 14 0
19 -2 13 -5z m2138 -100 c12 -16 12 -17 -1 -7 -8 6 -22 14 -30 17 -13 5 -12 6
1 6 9 1 23 -7 30 -16z m566 -15 c-2 -7 -13 -12 -23 -11 -67 9 -225 2 -269 -11
-27 -8 -51 -14 -53 -12 -4 5 83 33 118 39 14 2 72 5 128 6 79 1 103 -2 99 -11z
m-372 -48 c-11 -5 -29 -8 -40 -8 -16 0 -15 2 5 8 34 11 60 11 35 0z m-76 -16
c10 -9 -45 -3 -59 6 -11 7 -5 8 20 4 19 -4 37 -8 39 -10z m-375 -32 c3 -5 -1
-9 -9 -9 -8 0 -12 4 -9 9 3 4 7 8 9 8 2 0 6 -4 9 -8z m-83 -109 c12 -16 12
-17 -2 -6 -9 7 -20 9 -24 5 -5 -4 -5 -1 -1 6 9 16 11 15 27 -5z m-21 -17 c0
-2 -7 -6 -15 -10 -8 -3 -15 -1 -15 4 0 6 7 10 15 10 8 0 15 -2 15 -4z m-74
-83 c-3 -4 -6 -1 -6 5 0 7 -5 12 -11 12 -5 0 -7 -5 -3 -12 4 -6 3 -8 -3 -5
-12 7 -41 -25 -36 -40 5 -15 -12 -24 -31 -17 -12 5 -5 16 32 49 38 35 49 40
55 28 5 -8 6 -17 3 -20z m74 6 c0 -6 -4 -7 -10 -4 -5 3 -10 11 -10 16 0 6 5 7
10 4 6 -3 10 -11 10 -16z m1189 -22 c-13 -13 -26 -21 -29 -19 -5 4 38 42 48
42 3 0 -6 -10 -19 -23z m-566 -34 c-7 -2 -19 -2 -25 0 -7 3 -2 5 12 5 14 0 19
-2 13 -5z m-803 -23 c-8 -5 -17 -7 -20 -5 -3 1 -11 -3 -18 -11 -7 -8 -8 -14
-2 -14 5 0 10 -5 10 -11 0 -8 -5 -7 -15 1 -14 11 -14 15 -1 29 9 9 25 17 38
18 17 2 19 0 8 -7z m30 -30 c0 -5 -9 -10 -21 -10 -11 0 -17 5 -14 10 3 6 13
10 21 10 8 0 14 -4 14 -10z m530 -8 c-19 -9 -62 -28 -95 -41 -33 -13 -91 -41
-130 -62 -93 -50 -157 -73 -295 -104 -138 -32 -181 -39 -160 -26 8 6 17 8 20
6 4 -2 38 7 75 20 38 13 73 21 79 18 5 -3 6 -2 3 4 -4 6 4 8 21 5 22 -4 25 -2
15 8 -10 11 -23 11 -60 3 -49 -12 -63 -10 -63 8 0 6 9 8 19 4 11 -3 25 1 34
10 9 8 28 15 44 15 16 0 34 5 41 12 9 9 15 8 26 -8 13 -17 12 -20 -7 -24 -19
-5 -20 -7 -5 -13 10 -3 20 -2 23 3 4 6 17 10 30 10 13 0 26 4 30 10 3 5 12 7
19 4 7 -3 20 2 29 10 9 9 22 16 29 16 7 0 22 8 33 16 19 16 19 16 -5 10 -21
-6 -22 -5 -7 4 9 6 21 9 26 5 5 -3 17 3 27 12 10 10 27 19 38 20 12 1 57 15
101 32 89 33 119 39 65 13z m-640 4 c0 -2 -7 -7 -16 -10 -8 -3 -12 -2 -9 4 6
10 25 14 25 6z m330 -106 c0 -5 -7 -10 -16 -10 -8 0 -12 5 -9 10 3 6 10 10 16
10 5 0 9 -4 9 -10z m-52 -17 c-4 -21 -40 -24 -44 -5 -1 7 0 8 3 2 7 -15 23
-12 23 5 0 8 5 15 11 15 6 0 9 -8 7 -17z m-585 -48 c-15 -13 -23 -25 -17 -25
21 0 25 -32 7 -52 -14 -15 -14 -21 -3 -31 10 -9 11 -9 6 1 -4 6 0 19 8 28 14
13 18 14 37 1 16 -12 17 -17 7 -23 -9 -6 -6 -10 12 -16 25 -8 25 -8 -2 -4 -15
2 -30 -2 -33 -8 -3 -6 -3 0 -1 14 5 24 4 24 -9 6 -8 -10 -12 -23 -9 -27 3 -5
-1 -9 -8 -9 -12 0 -84 108 -76 115 9 8 94 54 101 55 4 0 -5 -11 -20 -25z m342
-5 c3 -5 1 -10 -4 -10 -6 0 -11 5 -11 10 0 6 2 10 4 10 3 0 8 -4 11 -10z
m-310 -20 c-3 -5 -12 -10 -18 -10 -7 0 -6 4 3 10 19 12 23 12 15 0z m60 -40
c-3 -5 -18 -10 -33 -9 -24 0 -25 1 -7 9 28 12 47 12 40 0z m285 -40 c0 -11 13
-61 29 -112 17 -51 37 -141 45 -200 8 -59 17 -112 21 -118 3 -5 2 -10 -4 -10
-12 0 -60 68 -94 135 -36 71 -86 121 -134 135 -62 19 -87 8 -110 -46 l-20 -46
-30 43 c-43 63 -83 134 -83 146 0 6 19 14 43 18 65 11 300 65 306 70 12 12 31
3 31 -15z m8804 -63 c41 -41 75 -208 60 -303 -4 -28 -32 -89 -77 -167 -39 -67
-100 -178 -137 -247 -109 -204 -188 -339 -238 -409 -26 -36 -60 -86 -76 -111
-16 -25 -123 -169 -237 -321 -264 -350 -278 -363 -209 -193 82 199 143 395
148 472 6 92 -5 94 -85 9 -45 -49 -78 -100 -142 -226 l-83 -163 -47 -236 c-27
-131 -55 -276 -64 -323 -18 -95 -71 -223 -90 -216 -9 3 -12 70 -12 268 l0 265
39 87 c21 48 43 87 48 87 6 0 7 -24 3 -57 -3 -32 -10 -103 -16 -158 -15 -150
-28 -266 -35 -307 -10 -59 13 -46 26 15 6 28 22 167 35 307 13 140 31 278 39
305 9 28 58 122 111 209 52 88 95 160 95 161 0 1 23 42 52 91 28 49 93 172
144 274 51 102 137 253 192 335 200 304 445 575 520 575 7 0 23 -11 36 -23z
m-154 -11 c0 -3 -41 -49 -91 -102 -151 -163 -253 -304 -484 -668 -91 -142
-187 -288 -291 -438 -181 -263 -401 -735 -490 -1053 -29 -106 -54 -115 -54
-20 0 104 19 250 47 354 14 53 36 141 48 196 30 125 128 437 193 613 52 140
99 219 207 352 34 41 81 102 105 135 140 193 338 401 446 471 77 49 268 141
319 153 22 5 41 9 43 10 1 1 2 -1 2 -3z m-819 -559 c-10 -9 -11 -8 -5 6 3 10
9 15 12 12 3 -3 0 -11 -7 -18z m-7051 9 c0 -2 -8 -10 -17 -17 -16 -13 -17 -12
-4 4 13 16 21 21 21 13z m6896 -31 c24 -14 44 -32 44 -41 0 -8 -28 -69 -61
-137 -112 -222 -232 -546 -310 -834 -12 -46 -26 -83 -31 -83 -12 0 -9 75 8
175 8 50 24 146 35 215 11 69 24 141 29 160 5 19 25 125 45 235 43 242 57 286
98 321 37 31 75 29 143 -11z m128 -25 c-10 -16 -20 -28 -22 -26 -4 5 28 56 35
56 2 0 -4 -13 -13 -30z m-6957 -67 c-3 -10 -5 -4 -5 12 0 17 2 24 5 18 2 -7 2
-21 0 -30z m-9 -78 c0 -39 -2 -45 -8 -25 -4 14 -8 48 -8 75 0 39 2 45 8 25 4
-14 8 -47 8 -75z m6497 65 c-2 -11 -32 -116 -65 -233 -156 -535 -148 -502
-159 -666 -24 -335 -9 -767 30 -874 7 -20 10 -40 6 -44 -19 -18 -190 109 -228
170 -22 38 -138 393 -169 520 l-22 89 22 51 c12 29 50 113 85 187 34 74 93
200 130 280 117 253 147 302 264 426 58 62 107 113 108 113 1 1 0 -8 -2 -19z
m-5413 -66 c33 -17 253 -196 326 -266 46 -44 52 -54 52 -91 0 -23 -5 -58 -10
-77 -20 -68 -49 -357 -54 -540 -4 -102 -9 -232 -12 -290 -3 -67 -2 -100 4 -90
5 8 13 83 16 165 19 416 57 780 85 808 13 13 50 -11 124 -82 80 -78 115 -95
164 -82 20 6 41 7 44 3 4 -4 10 -299 12 -657 3 -357 10 -690 15 -740 10 -86
94 -523 107 -557 13 -34 -15 -25 -101 31 -49 32 -125 77 -170 100 -96 49 -124
77 -157 156 -13 33 -47 114 -75 180 -72 170 -138 342 -152 395 -60 232 -157
472 -234 580 -18 25 -85 128 -151 230 -141 221 -188 287 -193 272 -2 -6 11
-30 28 -54 17 -24 76 -115 131 -203 55 -88 124 -196 154 -240 29 -44 65 -104
80 -134 36 -72 119 -303 150 -416 31 -113 51 -172 110 -310 25 -60 60 -146 77
-190 17 -44 40 -93 50 -110 18 -31 24 -65 11 -65 -5 0 -21 9 -38 21 -16 11
-68 40 -115 64 -115 58 -110 52 -313 371 -68 105 -244 447 -306 594 -18 41
-41 95 -51 120 -28 66 -67 164 -100 253 -36 94 -62 146 -67 131 -2 -5 17 -64
42 -130 26 -65 59 -153 75 -194 65 -173 309 -691 341 -724 16 -17 10 -34 -15
-40 -14 -3 -38 -17 -55 -31 l-30 -26 -16 23 c-9 13 -65 97 -125 188 -60 91
-139 201 -177 244 -37 44 -119 144 -180 224 -62 79 -141 178 -175 220 -92 115
-98 132 -98 295 0 133 9 185 31 171 5 -3 50 -85 100 -182 49 -97 106 -204 127
-237 21 -33 54 -89 72 -125 53 -101 123 -206 127 -192 3 7 -26 65 -64 130
-144 243 -176 301 -257 462 -92 182 -111 230 -102 263 10 41 115 136 184 168
80 36 137 47 144 28 3 -8 1 -78 -5 -155 -11 -151 -1 -253 29 -304 l15 -25 -5
30 c-25 142 -28 180 -18 302 5 71 15 140 22 152 7 14 47 40 103 66 110 51 312
131 347 138 34 6 89 -3 122 -19z m-1068 -200 c21 -52 24 -69 15 -78 -9 -8 -10
-8 -5 1 4 7 -5 39 -19 72 -25 61 -28 71 -21 71 2 0 16 -30 30 -66z m-143 -190
c5 -6 36 -64 69 -130 33 -65 69 -126 80 -136 11 -9 20 -20 20 -25 0 -4 10 -24
23 -43 24 -36 40 -70 32 -70 -26 0 -213 327 -286 500 -64 150 -62 164 2 25 29
-60 55 -115 60 -121z m216 143 c8 -16 12 -31 9 -34 -7 -7 -46 76 -45 97 0 8 5
4 11 -10 5 -14 17 -38 25 -53z m117 -22 c-20 -30 -20 -30 -20 -6 0 11 4 18 7
15 4 -2 10 0 14 6 3 5 8 10 11 10 2 0 -3 -11 -12 -25z m7418 -192 c-140 -439
-144 -457 -155 -608 -5 -77 -9 -308 -8 -512 1 -268 -1 -379 -10 -395 -6 -11
-61 -73 -122 -137 -141 -148 -593 -665 -659 -753 -28 -38 -54 -68 -58 -68 -13
0 -22 747 -10 863 6 59 13 113 16 120 2 7 23 24 47 38 51 31 177 139 177 152
0 5 -17 -1 -37 -13 -43 -25 -122 -51 -134 -44 -5 3 0 24 11 47 71 158 94 206
114 237 13 19 60 98 106 175 125 211 222 351 479 688 75 98 159 213 188 255
28 42 64 94 78 116 14 21 29 36 32 33 3 -3 -22 -90 -55 -194z m-7567 167 c3
-5 -1 -10 -10 -10 -9 0 -13 5 -10 10 3 6 8 10 10 10 2 0 7 -4 10 -10z m95 -34
c0 -2 -8 -10 -17 -17 -16 -13 -17 -12 -4 4 13 16 21 21 21 13z m5766 -843 c27
-119 120 -393 149 -437 24 -36 199 -167 266 -199 116 -55 254 -72 339 -42 61
22 47 -1 -32 -50 -36 -22 -112 -56 -169 -75 -102 -34 -107 -35 -274 -35 l-170
0 -61 32 c-41 21 -63 40 -68 55 -10 40 -7 778 4 778 5 0 12 -12 16 -27z m22
-822 c80 -41 159 -54 286 -47 l118 6 -7 -193 c-4 -105 -11 -334 -14 -507 l-6
-315 -30 1 c-16 0 -70 8 -120 17 -50 10 -140 17 -203 17 -131 0 -120 -7 -216
134 -66 98 -66 90 0 211 61 112 116 356 129 568 7 105 10 127 20 127 3 0 23
-9 43 -19z m-4863 -164 c4 4 5 2 1 -5 -4 -6 1 -24 12 -40 11 -15 27 -43 36
-62 l17 -35 -20 25 c-11 14 -21 28 -21 32 0 4 -13 29 -30 55 -16 26 -30 52
-30 57 1 6 6 1 13 -12 7 -12 17 -19 22 -15z m295 -69 c0 -4 -11 -2 -25 4 -14
6 -25 15 -25 19 0 4 11 2 25 -4 14 -7 25 -15 25 -19z m93 -50 c-4 -9 -83 33
-83 43 0 4 20 -3 44 -15 24 -11 42 -24 39 -28z m-68 -38 c10 -11 14 -20 8 -20
-5 0 -18 9 -28 20 -10 11 -14 20 -8 20 5 0 18 -9 28 -20z m252 -122 c-3 -8 -6
-5 -6 6 -1 11 2 17 5 13 3 -3 4 -12 1 -19z m-243 -180 c16 -21 25 -38 21 -38
-8 0 -13 6 -95 100 -36 41 -71 81 -77 88 -7 7 -13 16 -13 20 1 10 129 -124
164 -170z m231 -113 l70 -68 -94 79 c-95 80 -171 159 -171 177 0 6 28 -19 63
-54 34 -36 94 -96 132 -134z m-185 58 c0 -5 23 -32 50 -60 28 -29 47 -53 43
-53 -8 1 -41 34 -92 93 -14 15 -19 27 -13 27 7 0 12 -3 12 -7z m-3631 -264
c28 -18 51 -35 51 -38 0 -4 -27 -36 -60 -71 l-59 -65 -1 103 c0 57 4 102 9
102 5 0 32 -14 60 -31z"/>
<path d="M4750 10100 c6 -11 18 -20 27 -20 14 0 14 2 -2 20 -10 11 -22 20 -27
20 -5 0 -4 -9 2 -20z"/>
<path d="M5648 9505 c-26 -19 -52 -35 -57 -35 -11 0 -21 -35 -21 -77 0 -42 14
-41 65 2 32 27 41 43 50 89 6 31 11 56 11 56 -1 0 -22 -16 -48 -35z m12 -49
c0 -3 -4 -8 -10 -11 -5 -3 -10 -1 -10 4 0 6 5 11 10 11 6 0 10 -2 10 -4z"/>
<path d="M7005 9325 c32 -26 45 -31 45 -16 0 13 -41 41 -60 41 -10 -1 -4 -9
15 -25z"/>
<path d="M6900 9312 c0 -13 23 -32 39 -32 11 0 10 4 -4 20 -19 21 -35 26 -35
12z"/>
<path d="M6800 9262 c0 -10 21 -32 32 -32 16 0 8 19 -12 30 -11 6 -20 7 -20 2z"/>
<path d="M3296 8304 c-4 -9 -4 -19 -1 -22 2 -3 7 3 11 12 4 9 4 19 1 22 -2 3
-7 -3 -11 -12z"/>
<path d="M4316 8118 c-9 -12 -16 -32 -16 -43 1 -14 6 -10 21 18 23 44 20 60
-5 25z"/>
<path d="M3521 7901 c-23 -32 -26 -41 -12 -41 5 0 21 16 35 35 20 26 23 35 12
35 -8 0 -24 -13 -35 -29z"/>
<path d="M3414 7874 c-21 -51 -10 -54 16 -5 11 23 16 41 10 41 -6 0 -18 -16
-26 -36z"/>
<path d="M4728 7014 c-27 -8 -48 -19 -48 -24 0 -6 1 -10 3 -10 47 8 108 28
108 35 1 15 -12 15 -63 -1z"/>
<path d="M4914 6995 c22 -17 36 -19 36 -6 0 10 -24 21 -43 21 -7 0 -3 -7 7
-15z"/>
<path d="M8957 4102 c-17 -60 -35 -166 -69 -402 -17 -120 -22 -210 -25 -520
-3 -226 -1 -371 5 -365 29 32 96 272 123 440 17 108 21 174 20 390 0 143 -5
284 -10 314 -6 29 -11 84 -11 122 0 37 -4 70 -9 73 -5 3 -16 -20 -24 -52z"/>
<path d="M8778 3683 c-5 -564 8 -932 34 -973 10 -15 9 6 -13 455 -9 185 -7
578 4 689 1 10 -4 21 -10 23 -10 4 -13 -40 -15 -194z"/>
<path d="M8308 3494 c-5 -4 -8 -35 -7 -68 0 -50 2 -57 10 -36 11 27 8 116 -3
104z"/>
<path d="M8227 3388 c-4 -12 -7 -41 -7 -64 0 -46 -11 -62 -62 -93 -72 -43
-182 -185 -220 -285 -29 -75 -57 -126 -99 -183 -22 -29 -35 -53 -30 -53 22 0
76 84 142 218 62 126 79 153 147 223 123 127 118 135 119 -213 1 -204 6 -333
17 -423 18 -145 53 -312 67 -320 13 -9 11 20 -6 100 -49 221 -57 457 -25 785
11 113 20 214 20 225 -1 49 -21 -18 -35 -116 l-14 -104 3 152 c3 145 -4 203
-17 151z"/>
<path d="M8531 2797 c2 -242 12 -410 26 -414 9 -3 10 57 6 254 -6 281 -1 302
37 148 26 -107 69 -233 82 -241 19 -12 17 4 -8 77 -14 41 -36 114 -49 163 -23
86 -57 151 -82 161 -10 3 -13 -30 -12 -148z"/>
<path d="M3362 10940 c0 -14 2 -19 5 -12 2 6 2 18 0 25 -3 6 -5 1 -5 -13z"/>
<path d="M6105 10120 c-206 -13 -381 -53 -500 -112 -72 -36 -192 -118 -225
-153 -44 -46 -14 -35 56 21 99 80 244 149 379 179 114 25 385 54 528 56 45 1
109 5 142 9 80 9 -227 10 -380 0z"/>
<path d="M10791 10034 c0 -11 3 -14 6 -6 3 7 2 16 -1 19 -3 4 -6 -2 -5 -13z"/>
<path d="M10821 9904 c0 -11 3 -14 6 -6 3 7 2 16 -1 19 -3 4 -6 -2 -5 -13z"/>
<path d="M7205 9510 c-8 -13 38 -41 48 -31 5 5 7 14 3 19 -8 13 -45 22 -51 12z"/>
<path d="M6057 9387 c-8 -12 -25 -32 -37 -45 -30 -31 -24 -76 10 -80 56 -6
107 107 62 135 -17 10 -22 9 -35 -10z"/>
<path d="M3927 8290 c-10 -16 -24 -30 -31 -30 -8 0 -17 -7 -20 -16 -9 -23 -8
-24 12 -24 26 0 71 51 69 78 -2 30 -9 28 -30 -8z"/>
<path d="M3322 6767 c-8 -10 -6 -13 8 -14 10 -1 24 5 31 13 9 11 8 14 -9 14
-11 0 -24 -6 -30 -13z"/>
<path d="M2890 6439 l-25 -20 33 16 c17 8 32 18 32 20 0 10 -16 4 -40 -16z"/>
<path d="M3726 5974 c-20 -43 -34 -79 -31 -82 7 -7 8 -5 49 75 39 78 40 83 27
83 -5 0 -25 -34 -45 -76z"/>
<path d="M2855 5000 c-3 -5 -1 -10 4 -10 6 0 11 5 11 10 0 6 -2 10 -4 10 -3 0
-8 -4 -11 -10z"/>
<path d="M2883 4783 c9 -2 23 -2 30 0 6 3 -1 5 -18 5 -16 0 -22 -2 -12 -5z"/>
<path d="M2400 4710 c0 -5 5 -10 11 -10 5 0 7 5 4 10 -3 6 -8 10 -11 10 -2 0
-4 -4 -4 -10z"/>
<path d="M237 11563 c-24 -28 -35 -152 -42 -493 -6 -280 -5 -320 10 -357 17
-43 45 -62 100 -65 17 -1 35 -5 40 -9 6 -4 37 -11 70 -14 33 -4 62 -8 65 -10
8 -5 328 -53 435 -65 51 -6 83 -6 89 0 6 6 20 10 33 10 24 0 23 -2 27 90 4 72
19 306 22 330 1 14 6 97 10 185 10 221 4 230 -176 275 -195 49 -280 69 -375
90 -55 12 -127 28 -161 36 -82 19 -127 18 -147 -3z"/>
<path d="M10621 10764 c0 -11 3 -14 6 -6 3 7 2 16 -1 19 -3 4 -6 -2 -5 -13z"/>
<path d="M10622 10720 c0 -14 2 -19 5 -12 2 6 2 18 0 25 -3 6 -5 1 -5 -13z"/>
<path d="M185 9543 c-26 -7 -32 -18 -45 -78 -22 -113 -26 -185 -31 -570 -1
-155 1 -217 11 -237 17 -36 73 -57 179 -69 47 -5 119 -16 158 -24 40 -8 117
-20 170 -25 143 -15 277 -32 283 -35 3 -2 21 0 40 4 54 11 56 25 65 523 l5
307 -27 30 c-19 21 -47 36 -88 47 -103 27 -366 84 -455 99 -47 7 -109 18 -139
24 -56 11 -91 12 -126 4z"/>
<path d="M12310 9263 c-133 -4 -138 -6 -162 -61 -18 -39 -23 -78 -29 -232 -5
-102 -11 -225 -15 -275 -5 -76 -3 -101 15 -163 32 -107 55 -127 176 -157 55
-13 119 -27 143 -31 23 -4 42 -10 42 -15 0 -5 7 -6 14 -3 8 3 39 -1 68 -10
147 -42 232 -40 278 9 13 14 21 25 18 25 -4 0 0 24 9 53 8 28 16 70 18 92 2
22 7 72 11 110 4 39 6 144 6 235 -1 137 -4 174 -21 220 -22 62 -85 125 -136
136 -16 3 -35 10 -42 16 -6 5 -64 16 -130 24 -65 8 -129 18 -143 22 -14 4 -68
6 -120 5z"/>
<path d="M83 7495 c-42 -29 -51 -70 -62 -290 -6 -115 -14 -302 -17 -415 -6
-186 -5 -207 10 -223 10 -9 26 -17 37 -17 11 0 29 -4 39 -10 19 -10 179 -34
310 -46 41 -3 86 -8 100 -9 14 -2 98 -9 187 -15 143 -10 164 -10 192 4 19 10
33 27 37 44 3 15 8 33 10 41 3 8 9 114 15 235 26 557 27 532 -23 567 -35 25
-48 28 -450 99 -311 54 -352 58 -385 35z"/>
<path d="M2026 6617 c3 -10 9 -15 12 -12 3 3 0 11 -7 18 -10 9 -11 8 -5 -6z"/>
<path d="M2063 6564 c20 -11 27 -20 22 -32 -5 -14 -4 -14 6 -5 10 10 9 17 -6
33 -10 11 -25 20 -34 20 -10 -1 -5 -7 12 -16z"/>
<path d="M2100 6494 c0 -9 4 -13 9 -9 6 3 14 -3 20 -12 9 -16 10 -15 8 6 -4
26 -37 39 -37 15z"/>
<path d="M2150 6434 c0 -6 7 -17 15 -24 8 -7 13 -16 10 -20 -3 -5 -1 -18 3
-31 7 -19 10 -20 15 -6 4 10 2 17 -4 17 -6 0 -9 6 -6 13 3 7 -4 24 -14 38 -10
13 -19 19 -19 13z"/>
<path d="M17 5409 c-12 -7 -17 -22 -17 -52 0 -58 21 -67 125 -51 44 6 71 13
60 14 -11 1 -26 2 -32 1 -7 -1 -13 3 -13 9 0 8 14 10 43 6 30 -4 36 -3 22 3
-11 5 -16 10 -12 10 18 2 -16 41 -36 41 -12 0 -31 7 -41 15 -23 17 -73 19 -99
4z"/>
<path d="M7044 1216 c58 -47 484 -136 648 -136 101 0 75 16 -39 24 -134 10
-293 39 -448 81 -71 20 -141 38 -155 41 -24 5 -24 5 -6 -10z"/>
</g>
</svg>
