<svg width="230" height="225" version="1.1" xmlns="http://www.w3.org/2000/svg" desc="Created with imagetracer.js version 1.2.6" ><path fill="rgb(23,21,21)" stroke="rgb(23,21,21)" stroke-width="1" opacity="0.8823529411764706" d="M 126.5 1 L 129 1.5 L 126.5 2 L 126.5 1 Z " /><path fill="rgb(23,21,21)" stroke="rgb(23,21,21)" stroke-width="1" opacity="0.8823529411764706" d="M 53.5 18 L 52.5 20 L 53.5 18 Z " /><path fill="rgb(23,21,21)" stroke="rgb(23,21,21)" stroke-width="1" opacity="0.8823529411764706" d="M 50.5 20 L 49.5 22 L 50.5 20 Z " /><path fill="rgb(23,21,21)" stroke="rgb(23,21,21)" stroke-width="1" opacity="0.8823529411764706" d="M 179.5 20 L 180.5 22 L 179.5 20 Z " /><path fill="rgb(23,21,21)" stroke="rgb(23,21,21)" stroke-width="1" opacity="0.8823529411764706" d="M 46.5 23 L 45.5 25 L 46.5 23 Z " /><path fill="rgb(23,21,21)" stroke="rgb(23,21,21)" stroke-width="1" opacity="0.8823529411764706" d="M 183.5 23 L 184.5 25 L 183.5 23 Z " /><path fill="rgb(23,21,21)" stroke="rgb(23,21,21)" stroke-width="1" opacity="0.8823529411764706" d="M 42.5 26 L 40.5 29 L 42.5 26 Z " /><path fill="rgb(23,21,21)" stroke="rgb(23,21,21)" stroke-width="1" opacity="0.8823529411764706" d="M 187.5 26 L 189.5 29 L 187.5 26 Z " /><path fill="rgb(23,21,21)" stroke="rgb(23,21,21)" stroke-width="1" opacity="0.8823529411764706" d="M 201.5 40 L 203.5 43 L 201.5 40 Z " /><path fill="rgb(23,21,21)" stroke="rgb(23,21,21)" stroke-width="1" opacity="0.8823529411764706" d="M 27.5 41 L 26.5 43 L 27.5 41 Z " /><path fill="rgb(23,21,21)" stroke="rgb(23,21,21)" stroke-width="1" opacity="0.8823529411764706" d="M 23.5 46 L 22.5 48 L 23.5 46 Z " /><path fill="rgb(23,21,21)" stroke="rgb(23,21,21)" stroke-width="1" opacity="0.8823529411764706" d="M 206.5 46 L 207.5 48 L 206.5 46 Z " /><path fill="rgb(23,21,21)" stroke="rgb(23,21,21)" stroke-width="1" opacity="0.8823529411764706" d="M 55.5 47 L 60 47.5 L 54.5 49 L 55.5 47 Z " /><path fill="rgb(23,21,21)" stroke="rgb(23,21,21)" stroke-width="1" opacity="0.8823529411764706" d="M 170.5 47 L 175 47.5 L 170.5 48 L 170.5 47 Z " /><path fill="rgb(23,21,21)" stroke="rgb(23,21,21)" stroke-width="1" opacity="0.8823529411764706" d="M 179.5 63 L 180 67.5 L 179 67.5 L 179.5 63 Z " /><path fill="rgb(23,21,21)" stroke="rgb(23,21,21)" stroke-width="1" opacity="0.8823529411764706" d="M 52.5 79 L 51.5 81 L 52.5 79 Z " /><path fill="rgb(23,21,21)" stroke="rgb(23,21,21)" stroke-width="1" opacity="0.8823529411764706" d="M 179.5 81 L 180.5 83 L 179.5 81 Z " /><path fill="rgb(23,21,21)" stroke="rgb(23,21,21)" stroke-width="1" opacity="0.8823529411764706" d="M 0.5 107 L 1 111.5 L 0 111.5 L 0.5 107 Z " /><path fill="rgb(23,21,21)" stroke="rgb(23,21,21)" stroke-width="1" opacity="0.8823529411764706" d="M 229.5 107 L 230 111.5 L 229 111.5 L 229.5 107 Z " /><path fill="rgb(23,21,21)" stroke="rgb(23,21,21)" stroke-width="1" opacity="0.8823529411764706" d="M 188.5 117 L 189 119.5 L 188 119.5 L 188.5 117 Z " /><path fill="rgb(23,21,21)" stroke="rgb(23,21,21)" stroke-width="1" opacity="0.8823529411764706" d="M 0.5 119 L 1 123.5 L 0 123.5 L 0.5 119 Z " /><path fill="rgb(23,21,21)" stroke="rgb(23,21,21)" stroke-width="1" opacity="0.8823529411764706" d="M 229.5 119 L 230 123.5 L 229 123.5 L 229.5 119 Z " /><path fill="rgb(23,21,21)" stroke="rgb(23,21,21)" stroke-width="1" opacity="0.8823529411764706" d="M 49.5 143 L 50.5 145 L 49.5 143 Z " /><path fill="rgb(23,21,21)" stroke="rgb(23,21,21)" stroke-width="1" opacity="0.8823529411764706" d="M 51.5 146 L 53.5 149 L 51.5 146 Z " /><path fill="rgb(23,21,21)" stroke="rgb(23,21,21)" stroke-width="1" opacity="0.8823529411764706" d="M 177.5 148 L 172.5 154 L 177.5 148 Z " /><path fill="rgb(23,21,21)" stroke="rgb(23,21,21)" stroke-width="1" opacity="0.8823529411764706" d="M 58.5 153 L 59.5 155 L 58.5 153 Z " /><path fill="rgb(23,21,21)" stroke="rgb(23,21,21)" stroke-width="1" opacity="0.8823529411764706" d="M 169.5 155 L 168.5 157 L 169.5 155 Z " /><path fill="rgb(23,21,21)" stroke="rgb(23,21,21)" stroke-width="1" opacity="0.8823529411764706" d="M 47.5 164 L 51.5 169 L 47.5 164 Z " /><path fill="rgb(23,21,21)" stroke="rgb(23,21,21)" stroke-width="1" opacity="0.8823529411764706" d="M 92.5 167 L 91.5 169 L 92.5 167 Z " /><path fill="rgb(23,21,21)" stroke="rgb(23,21,21)" stroke-width="1" opacity="0.8823529411764706" d="M 37.5 169 L 40.5 173 L 37.5 169 Z " /><path fill="rgb(23,21,21)" stroke="rgb(23,21,21)" stroke-width="1" opacity="0.8823529411764706" d="M 22.5 183 L 23.5 185 L 22.5 183 Z " /><path fill="rgb(23,21,21)" stroke="rgb(23,21,21)" stroke-width="1" opacity="0.8823529411764706" d="M 207.5 183 L 206.5 185 L 207.5 183 Z " /><path fill="rgb(23,21,21)" stroke="rgb(23,21,21)" stroke-width="1" opacity="0.8823529411764706" d="M 26.5 188 L 28.5 191 L 26.5 188 Z " /><path fill="rgb(23,21,21)" stroke="rgb(23,21,21)" stroke-width="1" opacity="0.8823529411764706" d="M 203.5 188 L 202.5 190 L 203.5 188 Z " /><path fill="rgb(23,21,21)" stroke="rgb(23,21,21)" stroke-width="1" opacity="0.8823529411764706" d="M 51.5 191 L 53.5 194 L 51.5 191 Z " /><path fill="rgb(23,21,21)" stroke="rgb(23,21,21)" stroke-width="1" opacity="0.8823529411764706" d="M 40.5 202 L 42.5 205 L 40.5 202 Z " /><path fill="rgb(23,21,21)" stroke="rgb(23,21,21)" stroke-width="1" opacity="0.8823529411764706" d="M 189.5 202 L 187.5 205 L 189.5 202 Z " /><path fill="rgb(23,21,21)" stroke="rgb(23,21,21)" stroke-width="1" opacity="0.8823529411764706" d="M 45.5 206 L 46.5 208 L 45.5 206 Z " /><path fill="rgb(23,21,21)" stroke="rgb(23,21,21)" stroke-width="1" opacity="0.8823529411764706" d="M 180.5 209 L 179.5 211 L 180.5 209 Z " /><path fill="rgb(23,21,21)" stroke="rgb(23,21,21)" stroke-width="1" opacity="0.8823529411764706" d="M 177.5 211 L 176.5 213 L 177.5 211 Z " /><path fill="rgb(23,21,21)" stroke="rgb(23,21,21)" stroke-width="1" opacity="0.8823529411764706" d="M 148.5 224 L 151 224.5 L 148.5 225 L 148.5 224 Z " /><path fill="rgb(23,21,21)" stroke="rgb(23,21,21)" stroke-width="1" opacity="1" d="M 104.5 1 L 133.5 2 L 155.5 8 Q 183 19 201 39.5 Q 214.1 53.9 222 73.5 L 228 94.5 L 230 118.5 L 229 119.5 L 229 130.5 L 227 141.5 L 219 164.5 Q 208.1 186.6 190.5 202 L 172.5 215 L 155.5 223 L 146.5 224 L 144 220.5 L 144 179.5 L 138 166 Q 164.6 164.5 178 148.5 L 187 130.5 L 189 119.5 L 189 102.5 Q 186.5 87 177 78.5 L 179 74.5 L 180 63.5 Q 177.3 61.8 179 55.5 L 177 49.5 L 174.5 47 L 162.5 49 L 144.5 59 L 141.5 59 L 129.5 56 L 101.5 56 L 85.5 59 Q 74.9 48.6 55.5 47 L 51 59.5 L 51 71.5 L 53 78.5 Q 38.7 91.7 42 122.5 L 44 131.5 L 49 143.5 L 59.5 155 Q 72 165 93 166.5 L 88 174.5 L 87 180.5 L 85.5 182 Q 79.4 185.4 68.5 184 Q 60.5 181.5 56 175.5 L 47.5 164 Q 43.2 158.8 32.5 160 L 30 161 L 30 163.5 L 34.5 168 L 42 174.5 L 49 188.5 L 53.5 194 L 64.5 199 L 84.5 199 L 86 198.5 L 86 221.5 L 83.5 224 L 74.5 223 L 57.5 215 Q 41.2 205.3 29 191.5 Q 15.9 177.1 8 157.5 L 2 136.5 L 0 112.5 L 1 111.5 L 1 100.5 L 3 89.5 L 11 66.5 Q 21.9 44.4 39.5 29 Q 52.4 17.4 69.5 10 L 83.5 5 L 104.5 1 Z " /><path fill="rgb(0,0,0)" stroke="rgb(0,0,0)" stroke-width="1" opacity="0" d="M 0 0 L 105 0.5 L 96.5 1 L 83.5 4 Q 67.8 8.3 55.5 16 Q 37.9 26.9 25 42.5 L 9 68.5 L 3 85.5 L 0.5 101 L 0 0 Z " /><path fill="rgb(0,0,0)" stroke="rgb(0,0,0)" stroke-width="1" opacity="0" d="M 125.5 0 L 230 0 L 230 99.5 L 229 99.5 L 227 85.5 L 216 58.5 Q 205 39.5 188.5 26 Q 175.5 15 158.5 8 L 138.5 2 L 125.5 1 L 125.5 0 Z " /><path fill="rgb(0,0,0)" stroke="rgb(0,0,0)" stroke-width="1" opacity="0" d="M 55 48 L 67.5 50 Q 78 53.5 85.5 60 L 89.5 60 L 100.5 57 L 118.5 56 L 119.5 57 L 129.5 57 L 145.5 60 Q 155.9 49.9 174.5 48 L 178 56.5 L 179 68.5 L 176 78.5 Q 190.8 90.7 188 120.5 L 186 130.5 L 181 142.5 L 169.5 155 L 158.5 161 L 144.5 165 L 138.5 165 L 136 166.5 Q 141.2 171.3 143 179.5 L 143 220.5 L 146 224.5 L 84.5 225 L 87 221.5 L 87 197.5 L 85.5 197 L 84.5 198 L 71.5 199 L 58.5 196 L 50 188.5 Q 46.2 175.8 37.5 168 L 31 163.5 L 32.5 161 L 42.5 162 L 52 170.5 Q 55 178 61.5 182 Q 67.4 186.7 79.5 185 L 85.5 183 L 88 180.5 Q 88.5 170.5 95 166.5 L 77.5 163 L 69.5 160 L 54 148.5 Q 47.8 141.7 45 131.5 L 43 122.5 L 42 107.5 Q 44.8 105.8 43 99.5 L 46 90.5 L 54 79.5 L 54 76.5 Q 50.1 70.4 52 58.5 L 55 48 Z " /><path fill="rgb(0,0,0)" stroke="rgb(0,0,0)" stroke-width="1" opacity="0" d="M 229.5 130 L 230 225 L 154 224.5 Q 185.7 212.7 205 188.5 L 221 162.5 L 227 145.5 L 229.5 130 Z " /><path fill="rgb(0,0,0)" stroke="rgb(0,0,0)" stroke-width="1" opacity="0" d="M 0.5 131 L 3 145.5 L 14 172.5 Q 25 191.5 41.5 205 Q 56.4 217.6 77 224.5 L 0 225 L 0.5 131 Z " /><path fill="rgb(23,20,20)" stroke="rgb(23,20,20)" stroke-width="1" opacity="0.3333333333333333" d="M 107.5 0 L 111 0.5 L 107.5 1 L 107.5 0 Z " /><path fill="rgb(23,20,20)" stroke="rgb(23,20,20)" stroke-width="1" opacity="0.3333333333333333" d="M 119.5 0 L 123 0.5 L 119.5 1 L 119.5 0 Z " /><path fill="rgb(23,20,20)" stroke="rgb(23,20,20)" stroke-width="1" opacity="0.3333333333333333" d="M 39.5 28 L 38.5 30 L 39.5 28 Z " /><path fill="rgb(23,20,20)" stroke="rgb(23,20,20)" stroke-width="1" opacity="0.3333333333333333" d="M 190.5 28 L 191.5 30 L 190.5 28 Z " /><path fill="rgb(23,20,20)" stroke="rgb(23,20,20)" stroke-width="1" opacity="0.3333333333333333" d="M 208.5 48 L 209.5 50 L 208.5 48 Z " /><path fill="rgb(23,20,20)" stroke="rgb(23,20,20)" stroke-width="1" opacity="0.3333333333333333" d="M 105.5 56 L 108 56.5 L 105.5 57 L 105.5 56 Z " /><path fill="rgb(23,20,20)" stroke="rgb(23,20,20)" stroke-width="1" opacity="0.3333333333333333" d="M 122.5 56 L 125 56.5 L 122.5 57 L 122.5 56 Z " /><path fill="rgb(23,20,20)" stroke="rgb(23,20,20)" stroke-width="1" opacity="0.3333333333333333" d="M 42.5 102 L 43 104.5 L 42 104.5 L 42.5 102 Z " /><path fill="rgb(23,20,20)" stroke="rgb(23,20,20)" stroke-width="1" opacity="0.3333333333333333" d="M 188.5 107 L 189 111.5 L 188 111.5 L 188.5 107 Z " /><path fill="rgb(23,20,20)" stroke="rgb(23,20,20)" stroke-width="1" opacity="0.3333333333333333" d="M 42.5 116 L 43 118.5 L 42 118.5 L 42.5 116 Z " /><path fill="rgb(23,20,20)" stroke="rgb(23,20,20)" stroke-width="1" opacity="0.3333333333333333" d="M 34.5 160 L 38 160.5 L 34.5 161 L 34.5 160 Z " /><path fill="rgb(23,20,20)" stroke="rgb(23,20,20)" stroke-width="1" opacity="0.3333333333333333" d="M 55.5 175 L 56.5 177 L 55.5 175 Z " /><path fill="rgb(23,20,20)" stroke="rgb(23,20,20)" stroke-width="1" opacity="0.3333333333333333" d="M 20.5 181 L 21.5 183 L 20.5 181 Z " /><path fill="rgb(23,20,20)" stroke="rgb(23,20,20)" stroke-width="1" opacity="0.3333333333333333" d="M 50.5 189 L 51.5 191 L 50.5 189 Z " /><path fill="rgb(23,20,20)" stroke="rgb(23,20,20)" stroke-width="1" opacity="0.3333333333333333" d="M 86.5 198 L 87 207.5 L 86 207.5 L 86.5 198 Z " /><path fill="rgb(23,20,20)" stroke="rgb(23,20,20)" stroke-width="1" opacity="0.3333333333333333" d="M 38.5 201 L 39.5 203 L 38.5 201 Z " /><path fill="rgb(23,20,20)" stroke="rgb(23,20,20)" stroke-width="1" opacity="0.3333333333333333" d="M 191.5 201 L 190.5 203 L 191.5 201 Z " /><path fill="rgb(23,20,20)" stroke="rgb(23,20,20)" stroke-width="1" opacity="0.3333333333333333" d="M 143.5 209 L 144 219.5 L 143 219.5 L 143.5 209 Z " /><path fill="rgb(23,20,20)" stroke="rgb(23,20,20)" stroke-width="1" opacity="0.3333333333333333" d="M 144.5 222 L 145.5 224 L 144.5 222 Z " /><path fill="rgb(23,23,23)" stroke="rgb(23,23,23)" stroke-width="1" opacity="0.13725490196078433" d="M 41.5 26 L 40.5 28 L 41.5 26 Z " /><path fill="rgb(23,23,23)" stroke="rgb(23,23,23)" stroke-width="1" opacity="0.13725490196078433" d="M 188.5 26 L 189.5 28 L 188.5 26 Z " /><path fill="rgb(23,23,23)" stroke="rgb(23,23,23)" stroke-width="1" opacity="0.13725490196078433" d="M 27.5 40 L 26.5 42 L 27.5 40 Z " /><path fill="rgb(23,23,23)" stroke="rgb(23,23,23)" stroke-width="1" opacity="0.13725490196078433" d="M 202.5 40 L 203.5 42 L 202.5 40 Z " /><path fill="rgb(23,23,23)" stroke="rgb(23,23,23)" stroke-width="1" opacity="0.13725490196078433" d="M 108.5 56 L 111 56.5 L 108.5 57 L 108.5 56 Z " /><path fill="rgb(23,23,23)" stroke="rgb(23,23,23)" stroke-width="1" opacity="0.13725490196078433" d="M 53.5 79 L 52.5 81 L 53.5 79 Z " /><path fill="rgb(23,23,23)" stroke="rgb(23,23,23)" stroke-width="1" opacity="0.13725490196078433" d="M 176.5 148 L 172.5 153 L 176.5 148 Z " /><path fill="rgb(23,23,23)" stroke="rgb(23,23,23)" stroke-width="1" opacity="0.13725490196078433" d="M 59.5 153 L 60.5 155 L 59.5 153 Z " /><path fill="rgb(23,23,23)" stroke="rgb(23,23,23)" stroke-width="1" opacity="0.13725490196078433" d="M 47.5 165 L 50.5 169 L 47.5 165 Z " /><path fill="rgb(23,23,23)" stroke="rgb(23,23,23)" stroke-width="1" opacity="0.13725490196078433" d="M 93.5 167 L 92.5 169 L 93.5 167 Z " /><path fill="rgb(23,23,23)" stroke="rgb(23,23,23)" stroke-width="1" opacity="0.13725490196078433" d="M 37.5 168 L 39.5 171 L 37.5 168 Z " /><path fill="rgb(23,23,23)" stroke="rgb(23,23,23)" stroke-width="1" opacity="0.13725490196078433" d="M 143.5 184 L 144 208.5 L 143 208.5 L 143.5 184 Z " /><path fill="rgb(23,23,23)" stroke="rgb(23,23,23)" stroke-width="1" opacity="0.13725490196078433" d="M 26.5 189 L 27.5 191 L 26.5 189 Z " /><path fill="rgb(23,23,23)" stroke="rgb(23,23,23)" stroke-width="1" opacity="0.13725490196078433" d="M 203.5 189 L 202.5 191 L 203.5 189 Z " /><path fill="rgb(23,23,23)" stroke="rgb(23,23,23)" stroke-width="1" opacity="0.13725490196078433" d="M 52.5 191 L 53.5 193 L 52.5 191 Z " /><path fill="rgb(23,23,23)" stroke="rgb(23,23,23)" stroke-width="1" opacity="0.13725490196078433" d="M 40.5 203 L 41.5 205 L 40.5 203 Z " /><path fill="rgb(23,23,23)" stroke="rgb(23,23,23)" stroke-width="1" opacity="0.13725490196078433" d="M 189.5 203 L 188.5 205 L 189.5 203 Z " /><path fill="rgb(23,21,21)" stroke="rgb(23,21,21)" stroke-width="1" opacity="0.6039215686274509" d="M 111.5 0 L 119 0.5 L 111.5 1 L 111.5 0 Z " /><path fill="rgb(23,21,21)" stroke="rgb(23,21,21)" stroke-width="1" opacity="0.6039215686274509" d="M 37.5 30 L 29.5 39 L 37.5 30 Z " /><path fill="rgb(23,21,21)" stroke="rgb(23,21,21)" stroke-width="1" opacity="0.6039215686274509" d="M 192.5 30 L 200.5 39 L 192.5 30 Z " /><path fill="rgb(23,21,21)" stroke="rgb(23,21,21)" stroke-width="1" opacity="0.6039215686274509" d="M 25.5 43 L 24.5 45 L 25.5 43 Z " /><path fill="rgb(23,21,21)" stroke="rgb(23,21,21)" stroke-width="1" opacity="0.6039215686274509" d="M 204.5 43 L 205.5 45 L 204.5 43 Z " /><path fill="rgb(23,21,21)" stroke="rgb(23,21,21)" stroke-width="1" opacity="0.6039215686274509" d="M 102.5 56 L 105 56.5 L 102.5 57 L 102.5 56 Z " /><path fill="rgb(23,21,21)" stroke="rgb(23,21,21)" stroke-width="1" opacity="0.6039215686274509" d="M 125.5 56 L 128 56.5 L 125.5 57 L 125.5 56 Z " /><path fill="rgb(23,21,21)" stroke="rgb(23,21,21)" stroke-width="1" opacity="0.6039215686274509" d="M 51.5 61 L 52 69.5 L 51 69.5 L 51.5 61 Z " /><path fill="rgb(23,21,21)" stroke="rgb(23,21,21)" stroke-width="1" opacity="0.6039215686274509" d="M 0.5 104 L 1 106.5 L 0 106.5 L 0.5 104 Z " /><path fill="rgb(23,21,21)" stroke="rgb(23,21,21)" stroke-width="1" opacity="0.6039215686274509" d="M 188.5 104 L 189 106.5 L 188 106.5 L 188.5 104 Z " /><path fill="rgb(23,21,21)" stroke="rgb(23,21,21)" stroke-width="1" opacity="0.6039215686274509" d="M 229.5 104 L 230 106.5 L 229 106.5 L 229.5 104 Z " /><path fill="rgb(23,21,21)" stroke="rgb(23,21,21)" stroke-width="1" opacity="0.6039215686274509" d="M 188.5 112 L 189 116.5 L 188 116.5 L 188.5 112 Z " /><path fill="rgb(23,21,21)" stroke="rgb(23,21,21)" stroke-width="1" opacity="0.6039215686274509" d="M 42.5 119 L 43 121.5 L 42 121.5 L 42.5 119 Z " /><path fill="rgb(23,21,21)" stroke="rgb(23,21,21)" stroke-width="1" opacity="0.6039215686274509" d="M 0.5 124 L 1 126.5 L 0 126.5 L 0.5 124 Z " /><path fill="rgb(23,21,21)" stroke="rgb(23,21,21)" stroke-width="1" opacity="0.6039215686274509" d="M 229.5 124 L 230 126.5 L 229 126.5 L 229.5 124 Z " /><path fill="rgb(23,21,21)" stroke="rgb(23,21,21)" stroke-width="1" opacity="0.6039215686274509" d="M 54.5 149 L 57.5 153 L 54.5 149 Z " /><path fill="rgb(23,21,21)" stroke="rgb(23,21,21)" stroke-width="1" opacity="0.6039215686274509" d="M 31.5 164 L 33.5 167 L 31.5 164 Z " /><path fill="rgb(23,21,21)" stroke="rgb(23,21,21)" stroke-width="1" opacity="0.6039215686274509" d="M 137.5 167 L 138.5 169 L 137.5 167 Z " /><path fill="rgb(23,21,21)" stroke="rgb(23,21,21)" stroke-width="1" opacity="0.6039215686274509" d="M 57.5 177 L 59.5 180 L 57.5 177 Z " /><path fill="rgb(23,21,21)" stroke="rgb(23,21,21)" stroke-width="1" opacity="0.6039215686274509" d="M 71.5 184 L 77 184.5 L 71.5 185 L 71.5 184 Z " /><path fill="rgb(23,21,21)" stroke="rgb(23,21,21)" stroke-width="1" opacity="0.6039215686274509" d="M 24.5 186 L 25.5 188 L 24.5 186 Z " /><path fill="rgb(23,21,21)" stroke="rgb(23,21,21)" stroke-width="1" opacity="0.6039215686274509" d="M 205.5 186 L 204.5 188 L 205.5 186 Z " /><path fill="rgb(23,21,21)" stroke="rgb(23,21,21)" stroke-width="1" opacity="0.6039215686274509" d="M 29.5 192 L 37.5 201 L 29.5 192 Z " /><path fill="rgb(23,21,21)" stroke="rgb(23,21,21)" stroke-width="1" opacity="0.6039215686274509" d="M 200.5 192 L 192.5 201 L 200.5 192 Z " /><path fill="rgb(23,21,21)" stroke="rgb(23,21,21)" stroke-width="1" opacity="0.6039215686274509" d="M 86.5 208 L 87 219.5 L 86 219.5 L 86.5 208 Z " /><path fill="rgb(23,21,21)" stroke="rgb(23,21,21)" stroke-width="1" opacity="0.6039215686274509" d="M 85.5 222 L 84.5 224 L 85.5 222 Z " /></svg>